<?xml version="1.0" encoding="UTF-8" standalone="no"?>
<!-- Created with Inkscape (http://www.inkscape.org/) -->

<svg
   version="1.1"
   id="svg1"
   width="586.99481"
   height="401.79236"
   viewBox="0 0 586.99481 401.79235"
   sodipodi:docname="1- Logotipo principal cafe mendez v4.svg"
   inkscape:version="1.4.4 (dcaf3e7, 2026-05-05)"
   inkscape:export-filename="2- Logotipo principal cafe mendezv4.png"
   inkscape:export-xdpi="300"
   inkscape:export-ydpi="300"
   xmlns:inkscape="http://www.inkscape.org/namespaces/inkscape"
   xmlns:sodipodi="http://sodipodi.sourceforge.net/DTD/sodipodi-0.dtd"
   xmlns="http://www.w3.org/2000/svg"
   xmlns:svg="http://www.w3.org/2000/svg">
  <defs
     id="defs1">
    <inkscape:path-effect
       effect="fill_between_many"
       method="originald"
       linkedpaths="#path4-8,0,1"
       id="path-effect49"
       is_visible="true"
       lpeversion="0"
       join="true"
       close="true"
       autoreverse="true" />
  </defs>
  <sodipodi:namedview
     id="namedview1"
     pagecolor="#ffffff"
     bordercolor="#000000"
     borderopacity="0.25"
     inkscape:showpageshadow="2"
     inkscape:pageopacity="0.0"
     inkscape:pagecheckerboard="0"
     inkscape:deskcolor="#d1d1d1"
     inkscape:zoom="1"
     inkscape:cx="249"
     inkscape:cy="281"
     inkscape:window-width="1920"
     inkscape:window-height="1009"
     inkscape:window-x="-8"
     inkscape:window-y="-8"
     inkscape:window-maximized="1"
     inkscape:current-layer="g1"
     showguides="false" />
  <g
     inkscape:groupmode="layer"
     inkscape:label="Image"
     id="g1"
     style="display:inline"
     transform="translate(-109.01364,30.209198)">
    <path
       d="m 316.57124,66.833182 h -1.81959 q -0.83181,-5.562746 -3.22327,-9.877773 -2.33947,-4.315028 -5.71871,-7.122395 -3.32725,-2.859355 -7.5383,-4.315027 -4.15906,-1.455672 -8.83801,-1.455672 -6.23859,0 -11.02152,2.651402 -4.73093,2.651403 -7.27835,6.602512 -3.06731,4.990875 -4.31503,11.073504 -1.24772,6.030641 -1.24772,12.893094 0,12.477187 4.36702,19.9635 4.36701,7.486313 10.50163,10.449643 6.1866,2.91135 12.16526,2.91135 14.45274,0 25.05835,-14.140817 v 7.018417 q -3.48322,4.05509 -7.48632,7.17438 -4.00309,3.1193 -9.98175,5.19883 -5.97865,2.07953 -13.98484,2.07953 -9.46187,0 -16.89619,-3.17128 -7.38234,-3.22328 -12.26924,-8.63006 -4.8869,-5.40678 -7.38233,-12.373208 -2.49544,-6.96643 -2.49544,-14.348766 0,-6.34257 1.61163,-11.80134 1.61164,-5.458769 4.36702,-9.66982 2.75538,-4.263039 6.55052,-7.902219 6.49854,-5.926664 13.51696,-8.058183 7.01841,-2.183508 15.12859,-2.183508 8.00619,0 17.46806,2.651402 3.32725,0.779824 4.8869,0.779824 2.85935,0 4.36701,-3.743156 h 1.50766 z m 59.99659,-27.033906 25.7342,66.233074 q 2.07953,5.09485 4.8869,7.01841 2.80737,1.87158 6.91444,2.54743 v 1.50766 h -36.28782 v -1.50766 q 7.43433,-0.41591 7.43433,-4.67895 0,-0.67584 -0.25995,-1.87157 -0.20795,-1.24772 -0.62386,-2.59942 -0.36391,-1.40368 -0.46789,-1.71561 l -6.39456,-16.272333 h -22.87484 l -5.45877,15.648473 q -1.03977,2.80737 -1.03977,5.09485 0,3.5352 2.07953,4.78292 2.07954,1.19573 4.93889,1.61164 v 1.50766 h -22.97882 v -1.50766 q 3.58719,-0.36392 6.70649,-3.32725 3.1193,-3.01532 6.03064,-11.02152 l 21.7311,-61.450144 z m -20.17145,43.56618 h 19.0797 l -9.87777,-25.786188 z m 125.96973,-42.838344 1.19573,13.568941 h -1.50766 q -1.14375,-3.379238 -2.2355,-5.14684 -1.03977,-1.767601 -3.5352,-2.963332 -2.49544,-1.19573 -7.01842,-1.19573 h -14.97263 v 31.348934 h 13.04906 q 4.10708,0 7.48631,-2.079532 3.43123,-2.131519 3.69117,-7.642277 h 1.61164 v 22.147008 h -1.61164 q -0.25994,-3.431227 -2.59941,-5.822688 -2.33947,-2.391461 -7.27836,-2.391461 h -14.34877 v 25.370285 q 0,4.36701 2.02755,7.12239 2.02754,2.75538 7.33034,2.75538 h 0.51989 v 1.50766 h -36.28782 v -1.50766 q 5.87467,0 7.59029,-2.6514 1.7676,-2.6514 1.7676,-7.22637 V 51.860557 q 0,-4.055086 -1.55965,-6.914441 -1.50766,-2.911344 -7.27836,-2.911344 h -0.51988 v -1.50766 z m 71.9019,0 0.62386,17.156133 h -1.50766 q -1.03976,-4.315028 -2.33947,-7.122395 -1.24772,-2.807367 -3.58719,-4.263039 -2.33947,-1.50766 -6.39456,-1.50766 h -15.44052 v 32.180746 h 12.32122 q 5.51076,0 8.0062,-2.443449 2.54743,-2.443449 2.96333,-7.226371 h 1.50766 v 22.458937 h -1.50766 q -0.77982,-5.094851 -3.79514,-6.810465 -3.01532,-1.715613 -7.17439,-1.715613 h -12.32122 v 22.043034 q 0,9.56584 9.87778,9.56584 h 4.67894 q 4.73093,0 7.69427,-1.24772 3.01532,-1.24772 4.93888,-4.26304 1.97556,-3.06731 3.53521,-8.630051 h 1.50766 l -1.14375,18.403851 h -57.70699 v -1.50766 q 6.03064,0 7.79824,-2.70339 1.76761,-2.75538 1.76761,-7.17438 V 52.06851 q 0,-4.21105 -1.61164,-7.122394 -1.61164,-2.911344 -7.43433,-2.911344 h -0.51988 v -1.50766 z M 527.90996,14.169053 h 21.00326 v 0.415906 l -30.25718,20.223442 h -2.75538 z"
       id="text1"
       style="font-weight:bold;font-size:106.472px;line-height:0px;font-family:'Perpetua Titling MT';-inkscape-font-specification:'Perpetua Titling MT Bold';letter-spacing:11.1796px;direction:rtl;fill:#1a2e2c;stroke-width:4.03662;paint-order:markers stroke fill"
       aria-label="CAFÉ" />
    <path
       d="m 226.0846,145.48376 v 1.71562 q -3.43124,0.23663 -5.67929,0.88738 -2.18889,0.59159 -3.66786,2.83964 -1.47898,2.18889 -1.06487,6.56667 l 4.79189,58.50843 q 0.53244,6.15255 1.71562,9.11051 1.24234,2.8988 3.01712,3.90451 1.83393,1.00571 5.73844,1.89309 v 1.71562 h -39.99161 v -1.71562 q 5.02853,-0.11832 7.86817,-2.66216 2.8988,-2.54384 2.30721,-10.05706 l -4.25946,-55.49131 h -0.23664 l -28.45556,69.92615 h -2.07057 l -29.34295,-67.61894 h -0.23664 l -3.84535,48.56968 q -0.59159,7.15826 1.00571,11.00361 1.5973,3.78619 4.2003,4.96937 2.66216,1.12403 6.15255,1.36066 v 1.71562 h -29.57958 v -1.71562 q 5.62012,-0.35495 8.45976,-4.49609 2.8988,-4.14115 3.9045,-13.78409 l 5.85676,-55.13636 q -5.5018,-8.81472 -15.02643,-10.29369 v -1.71562 h 31.47268 l 25.20181,57.32524 23.36788,-57.32524 z m 83.12122,0 0.70991,19.52253 h -1.71562 q -1.18318,-4.91021 -2.66216,-8.10481 -1.41982,-3.19459 -4.08198,-4.85105 -2.66217,-1.71562 -7.27658,-1.71562 h -17.57028 v 36.61953 h 14.02073 q 6.27087,0 9.11051,-2.78048 2.8988,-2.78048 3.37207,-8.22312 h 1.71562 v 25.55676 h -1.71562 q -0.88739,-5.7976 -4.31862,-7.74985 -3.43123,-1.95225 -8.16396,-1.95225 h -14.02073 v 25.08349 q 0,10.88529 11.24024,10.88529 h 5.32433 q 5.38349,0 8.75556,-1.41982 3.43123,-1.41982 5.62012,-4.85106 2.24805,-3.49039 4.02282,-9.82042 h 1.71562 l -1.3015,20.94235 h -65.66669 v -1.71562 q 6.86247,0 8.87388,-3.07627 2.01141,-3.13544 2.01141,-8.16397 V 158.6171 q 0,-4.7919 -1.83393,-8.10481 -1.83394,-3.31291 -8.45977,-3.31291 h -0.59159 v -1.71562 z m -29.99371,-29.9937 h 23.90031 v 0.47327 l -34.43064,23.01292 h -3.13544 z m 82.05637,29.9937 53.1841,56.14206 v -39.87329 q 0,-7.86817 -3.1946,-10.70781 -3.19459,-2.8988 -9.76126,-3.84534 v -1.71562 h 30.05286 v 1.71562 q -4.96937,0.53243 -7.3949,2.72132 -2.42552,2.12973 -3.13543,5.02853 -0.70991,2.8988 -0.70991,6.8033 v 71.81925 h -2.18889 l -63.7736,-67.08651 v 49.04296 q 0,6.15255 2.60301,10.53033 2.66216,4.31862 9.76126,4.85105 v 1.71562 h -31.11773 v -1.71562 q 13.07418,-1.06486 12.95586,-12.83754 v -57.6802 q -0.35495,-0.23663 -0.94654,-0.82823 -0.53244,-0.53243 -1.77478,-1.71561 -1.24234,-1.18319 -2.24805,-2.12973 -7.92733,-7.63154 -13.9024,-8.51892 v -1.71562 z m 85.54673,0 h 47.62314 q 11.65436,0 20.88319,3.60871 9.28799,3.54955 15.4997,9.87958 6.21172,6.33003 9.34715,14.43484 3.13544,8.04565 3.13544,17.03784 0,8.75556 -2.95796,16.32794 -2.8988,7.57237 -8.81472,13.42913 -5.91591,5.85676 -14.78979,9.16967 -8.87388,3.25376 -19.9958,3.25376 h -49.93035 v -1.71562 q 6.86247,0 8.81472,-3.01712 2.01141,-3.07627 2.01141,-8.22312 v -60.93395 q 0,-4.85106 -1.77478,-8.16397 -1.77477,-3.37207 -8.4006,-3.37207 h -0.65075 z m 30.17118,5.85676 v 63.83275 q 0,4.61442 1.00571,7.33574 1.06486,2.72132 3.9045,4.02282 2.83964,1.24235 8.57808,1.24235 5.14685,0 9.22884,-0.65075 4.08198,-0.70991 7.69069,-2.72133 5.32433,-3.07627 8.75556,-8.45976 3.49039,-5.38348 5.08769,-11.83184 1.59729,-6.44835 1.59729,-13.31081 0,-7.0991 -1.89309,-14.13904 -1.89309,-7.03995 -6.21171,-13.01502 -4.25946,-5.97508 -11.5952,-9.64295 -7.27658,-3.66787 -17.74776,-3.66787 -3.72702,0 -8.4006,1.00571 z m 148.13717,-5.85676 0.70991,19.52253 h -1.71562 q -1.18318,-4.91021 -2.66216,-8.10481 -1.41982,-3.19459 -4.08198,-4.85105 -2.66217,-1.71562 -7.27658,-1.71562 h -17.57028 v 36.61953 h 14.02073 q 6.27087,0 9.11051,-2.78048 2.8988,-2.78048 3.37207,-8.22312 h 1.71562 v 25.55676 h -1.71562 q -0.88739,-5.7976 -4.31862,-7.74985 -3.43123,-1.95225 -8.16396,-1.95225 h -14.02073 v 25.08349 q 0,10.88529 11.24024,10.88529 h 5.32433 q 5.38349,0 8.75556,-1.41982 3.43123,-1.41982 5.62012,-4.85106 2.24805,-3.49039 4.02282,-9.82042 h 1.71562 l -1.3015,20.94235 h -65.66669 v -1.71562 q 6.86247,0 8.87388,-3.07627 2.01141,-3.13544 2.01141,-8.16397 V 158.6171 q 0,-4.7919 -1.83393,-8.10481 -1.83394,-3.31291 -8.45977,-3.31291 h -0.59159 v -1.71562 z m 104.06359,0 -56.97029,82.29042 h 32.95166 q 5.50181,0 9.28799,-0.88739 3.84535,-0.88739 6.44835,-2.83964 2.66217,-2.01141 4.4961,-5.08769 1.83394,-3.07628 3.66787,-8.16397 h 1.65646 l -3.01712,21.82974 h -82.23126 l 56.79281,-82.29042 h -31.591 q -4.43694,0 -8.04565,1.00571 -3.54955,0.94654 -6.8033,4.91021 -3.25376,3.90451 -4.91021,11.77268 h -1.71562 l 1.95225,-22.53965 z"
       id="text1-8"
       style="font-weight:bold;font-size:121.158px;line-height:0px;font-family:'Perpetua Titling MT';-inkscape-font-specification:'Perpetua Titling MT Bold';letter-spacing:12.7218px;direction:rtl;fill:#1a2e2c;stroke-width:4.59344;paint-order:markers stroke fill"
       transform="scale(0.95248987,1.0498799)"
       aria-label="MÉNDEZ" />
    <path
       d="m 207.66829,279.64635 v -6.41926 q 0,-0.93751 -0.55382,-1.53646 -0.55383,-0.59896 -1.71828,-0.59896 v -0.22135 h 6.66011 v 0.22135 q -1.16446,0 -1.70409,0.59896 -0.53962,0.58594 -0.53962,1.53646 v 14.50518 q 0,2.10937 2.24371,2.10937 v 0.20834 h -6.66011 v -0.20834 q 1.06504,0 1.66148,-0.52083 0.61062,-0.53385 0.61062,-1.56249 v -7.52604 h -11.98536 v 7.49999 q 0,1.0026 0.61063,1.5625 0.62483,0.54687 1.66148,0.54687 v 0.20834 h -6.66012 v -0.20834 q 1.07926,0 1.64729,-0.54687 0.58222,-0.5599 0.58222,-1.5625 v -14.50518 q 0,-2.13542 -2.22951,-2.13542 v -0.22135 h 6.66012 v 0.22135 q -1.17866,0 -1.73249,0.59896 -0.53962,0.58594 -0.53962,1.53646 v 6.41926 z m 9.41562,-8.55468 v -0.22135 h 12.46818 v 3.02082 h -0.19881 q 0,-2.42187 -3.52176,-2.42187 h -4.35961 v 8.71093 h 3.83418 q 1.13605,0 2.0307,-0.33855 0.89464,-0.33853 1.02244,-1.54947 h 0.21301 v 4.34895 h -0.21301 q -0.1278,-0.74218 -0.48282,-1.13281 -0.35502,-0.40364 -0.71004,-0.53385 -0.34081,-0.13021 -0.61062,-0.13021 -0.51122,-0.0781 -1.06505,-0.0781 h -4.01879 v 6.80989 q 0,0.76822 0.31241,1.32812 0.32662,0.55989 1.49108,0.55989 h 3.10994 q 1.12186,0 1.84609,-0.29947 0.72423,-0.29949 1.13605,-0.83334 0.42602,-0.53386 0.71003,-1.28906 h 0.19882 l -0.72424,3.00781 h -12.46818 v -0.20834 h 0.28401 q 0.66743,0 1.30646,-0.49478 0.63903,-0.49479 0.63903,-1.61459 v -14.4531 q 0,-0.88542 -0.44022,-1.53646 -0.42602,-0.65104 -1.50527,-0.65104 z m 18.13482,0.0521 h -0.28402 v -0.27343 h 7.24235 q 1.74667,0 2.95373,0.49479 1.22125,0.49478 1.88869,1.26301 0.68163,0.75521 0.96565,1.60157 0.2982,0.84635 0.2982,1.66666 0,1.04166 -0.48282,2.0052 -0.46862,0.95052 -1.46266,1.64063 -0.97985,0.6901 -2.45672,0.93749 v 0.0521 q 1.87449,0.83333 3.46496,3.30729 l 1.88869,2.92968 q 1.27806,1.96614 2.0449,2.48697 0.78103,0.52084 1.53367,0.58594 v 0.20834 h -3.80578 q -0.24142,-0.28646 -0.45442,-0.54688 -0.21301,-0.27343 -0.45442,-0.57292 -0.14201,-0.19531 -0.42602,-0.58593 -0.26982,-0.40365 -0.32662,-0.45573 l -2.49931,-3.78906 q -0.75264,-1.15885 -1.54788,-1.87499 -0.78103,-0.72917 -1.46266,-1.04167 -0.68164,-0.3125 -1.23547,-0.39062 -0.53962,-0.0781 -1.27805,-0.0781 v 7.01822 q 0,2.04427 2.2721,2.10937 v 0.20834 h -6.66011 v -0.20834 q 0.62483,-0.026 1.10765,-0.20833 0.48283,-0.19531 0.79525,-0.65104 0.32661,-0.46875 0.32661,-1.25 v -14.50518 q 0,-1.14584 -0.61063,-1.61459 -0.61063,-0.46875 -1.33486,-0.46875 z m 4.10399,9.06249 h 1.19286 q 1.87449,0 3.06733,-0.49479 1.20707,-0.4948 1.74669,-1.40625 0.53962,-0.92448 0.53962,-2.2526 0,-1.10677 -0.48282,-2.16146 -0.48282,-1.0677 -1.64728,-1.78385 -1.15025,-0.72916 -3.10994,-0.72916 -0.79524,0 -1.30646,0.11718 z m 17.7656,-9.11457 v -0.22135 h 12.46818 v 3.02082 h -0.19881 q 0,-2.42187 -3.52176,-2.42187 h -4.3596 v 8.71093 h 3.83418 q 1.13605,0 2.03069,-0.33855 0.89465,-0.33853 1.02246,-1.54947 h 0.21301 v 4.34895 h -0.21301 q -0.12781,-0.74219 -0.48283,-1.13281 -0.35501,-0.40364 -0.71003,-0.53385 -0.34082,-0.13021 -0.61063,-0.13021 -0.51123,-0.0781 -1.06505,-0.0781 h -4.01879 v 6.80988 q 0,0.76823 0.31242,1.32813 0.32661,0.55989 1.49106,0.55989 h 3.10995 q 1.12185,0 1.84609,-0.29948 0.72423,-0.29948 1.13605,-0.83333 0.42602,-0.53386 0.71003,-1.28906 h 0.19881 l -0.72424,3.00781 h -12.46818 v -0.20834 h 0.28401 q 0.66744,0 1.30647,-0.49479 0.63903,-0.49478 0.63903,-1.61458 v -14.4531 q 0,-0.88542 -0.44022,-1.53646 -0.42602,-0.65104 -1.50528,-0.65104 z m 39.56363,-0.22135 v 0.22135 q -0.79524,0.0912 -1.26386,0.28646 -0.45442,0.18229 -0.71003,0.74218 -0.25562,0.54687 -0.25562,1.58854 v 16.8229 h -0.142 L 278.21948,274.0995 v 11.79685 q 0,1.47136 0.12782,2.18751 0.1278,0.71613 0.36921,1.02863 0.52543,0.67709 1.83189,0.72917 V 290.05 h -5.24005 v -0.20834 q 0.88045,-0.0391 1.36327,-0.33854 0.49702,-0.3125 0.69583,-1.11979 0.21301,-0.82031 0.21301,-2.46093 v -12.51301 l -0.69583,-0.71615 q -0.92305,-0.96354 -1.47687,-1.21094 -0.55383,-0.26042 -1.37747,-0.39062 v -0.22135 h 3.93358 l 15.81955,16.24997 v -12.3828 q 0,-1.39323 -0.12781,-2.08333 -0.11361,-0.6901 -0.63903,-1.10677 -0.51123,-0.41667 -1.61888,-0.45573 v -0.22135 z m 23.91449,4.29686 h -0.2414 q -0.26982,-1.40625 -1.44847,-2.3828 -1.16446,-0.97657 -2.68393,-1.41927 -1.51948,-0.45573 -2.84014,-0.45573 -1.80348,0 -3.39396,0.70312 -1.57627,0.6901 -2.72652,1.96614 -1.15026,1.26302 -1.78928,3.04687 -0.63903,1.77083 -0.63903,3.85416 0,2.01824 0.61063,3.75 0.62482,1.71875 1.80348,2.99479 1.19286,1.26302 2.75493,1.91406 1.56208,0.65104 3.46496,0.65104 1.59047,0 3.49337,-0.58594 1.90288,-0.59896 3.43655,-1.97916 v 0.74219 q -1.88869,1.34114 -3.46496,1.96614 -1.56207,0.625 -3.90519,0.625 -2.47091,0 -4.5158,-0.82031 -2.0307,-0.83333 -3.43657,-2.23958 -1.40585,-1.40625 -2.13009,-3.16406 -0.72423,-1.75782 -0.72423,-3.61979 0,-2.79947 1.50527,-5.1953 1.50526,-2.40886 4.07559,-3.80209 2.57032,-1.40624 5.58085,-1.40624 1.86029,0 3.96199,0.50781 l 1.47687,0.37761 q 0.42602,0.0781 0.72423,0.0781 0.55383,0 0.73844,-0.14322 0.18461,-0.15625 0.28402,-0.54688 h 0.2272 z m 11.75873,-4.29686 v 0.22135 q -0.93724,0 -1.59047,0.48177 -0.65324,0.48177 -0.65324,1.60155 v 14.55728 q 0,1.10677 0.69584,1.61458 0.69583,0.49479 1.54787,0.49479 V 290.05 h -6.6317 v -0.20834 q 0.90884,0 1.56206,-0.48176 0.66744,-0.4948 0.66744,-1.62761 V 273.175 q 0,-1.19791 -0.66744,-1.64062 -0.65322,-0.4427 -1.56206,-0.4427 v -0.22135 z m 14.69826,-0.23438 6.26249,16.43227 q 0.49703,1.27604 0.93724,1.84896 0.44023,0.57292 0.83784,0.72916 0.41182,0.14323 1.03665,0.19531 V 290.05 h -6.83051 v -0.20834 q 1.05085,0 1.61887,-0.18229 0.56802,-0.18229 0.56802,-0.98958 0,-0.44271 -0.26981,-1.1849 -0.0568,-0.10416 -0.0568,-0.15624 l -1.86029,-5.09114 h -7.24233 l -1.66148,4.71354 q -0.34082,0.96353 -0.34082,1.54947 0,0.80729 0.44022,1.08073 0.44023,0.26041 1.24966,0.26041 V 290.05 h -4.91343 v -0.20834 q 1.05085,-0.0912 1.67568,-0.72917 0.63903,-0.65103 1.10765,-1.96614 l 5.90747,-16.51039 z m -4.75722,10.91145 h 6.66011 l -3.40816,-9.10156 h -0.0568 z m 54.4181,8.73696 0.32661,0.19531 q -1.36326,1.43229 -2.66972,2.33073 -1.30646,0.89843 -2.88274,0.89843 -0.49702,0 -0.99404,-0.0781 -0.49703,-0.0781 -1.26386,-0.3125 -0.75264,-0.23437 -1.76089,-0.67708 -1.74667,-0.75521 -4.79982,-2.1875 -0.0284,-0.026 -0.34081,-0.16927 -1.20706,-0.33854 -1.76089,-0.52083 -0.53962,-0.19532 -1.42006,-0.65105 -0.88045,-0.46874 -1.77509,-1.22395 -0.88044,-0.7552 -1.64727,-1.78385 -0.59643,-0.79427 -1.03665,-1.74479 -0.44023,-0.96354 -0.66743,-1.97917 -0.22721,-1.02864 -0.22721,-1.97915 0,-2.85156 1.54787,-5.16927 1.54787,-2.33073 4.08979,-3.61979 2.55612,-1.30208 5.48145,-1.30208 2.24371,0 4.26021,0.78125 2.03069,0.78125 3.53596,2.1875 1.51947,1.39322 2.35731,3.24218 0.83784,1.83594 0.83784,3.90624 0,2.03125 -0.89464,3.97136 -0.88045,1.94009 -2.57032,3.41145 -0.76684,0.66406 -1.40587,1.0677 -0.63903,0.40365 -1.24966,0.66407 -0.59642,0.26042 -1.24966,0.45573 -0.65322,0.18229 -1.26386,0.3125 v 0.0651 q 0.0852,0 0.61064,0.26041 1.88868,0.98959 2.75493,1.19792 0.86623,0.22135 1.88868,0.22135 1.26386,0 2.0449,-0.36458 0.79523,-0.36458 1.97388,-1.28906 0.0284,0 0.0852,-0.0651 0.071,-0.0521 0.0852,-0.0521 z m -3.30876,-9.72655 q 0,-2.86458 -0.85204,-4.77864 -0.85204,-1.92708 -2.1727,-2.98177 -1.30646,-1.05468 -2.72652,-1.47134 -1.42008,-0.41667 -2.76913,-0.41667 -1.39167,0 -2.84014,0.42968 -1.43427,0.42969 -2.76913,1.51042 -1.32066,1.08073 -2.1443,2.95572 -0.82363,1.86198 -0.82363,4.54426 0,2.61719 0.75263,4.51823 0.75263,1.88802 2.05909,3.04687 0.82364,0.71615 1.78929,1.17188 0.96564,0.45573 2.00229,0.66405 1.05085,0.19532 2.0591,0.19532 1.80348,0 3.36556,-0.61198 1.57627,-0.61197 2.65552,-1.75781 2.41411,-2.57812 2.41411,-7.01822 z m 28.4161,9.49218 h -4.38801 v -3.17708 l -0.071,-0.0521 q -0.90884,1.9401 -2.72652,2.83853 -1.80349,0.89844 -3.77739,0.89844 -2.22949,0 -4.01878,-0.97656 -1.77508,-0.97657 -2.61292,-2.40885 -0.59643,-1.01563 -0.75264,-2.10938 -0.15621,-1.10676 -0.15621,-2.29166 v -9.54425 q 0,-0.85938 -0.38341,-1.44532 -0.36922,-0.58593 -1.78928,-0.6901 v -0.22135 h 6.5749 v 0.22135 q -1.44846,0.15625 -1.84609,0.76822 -0.39761,0.61199 -0.39761,1.3672 v 9.388 q 0,2.86458 0.63903,4.23176 0.68163,1.45834 2.04489,2.27865 1.36327,0.82031 3.09575,0.82031 0.72423,0 1.71828,-0.23437 0.99404,-0.23438 1.86028,-0.78126 2.59872,-1.6276 2.59872,-5.22134 v -10.48175 q 0,-0.79428 -0.39762,-1.40625 -0.39761,-0.61199 -1.87448,-0.72917 v -0.22135 h 6.68851 v 0.22135 q -1.44846,0.0651 -1.86029,0.74219 -0.41182,0.67708 -0.41182,1.36718 v 14.53123 q 0,0.75521 0.26982,1.19791 0.28401,0.4297 0.76683,0.61199 0.49702,0.18229 1.20706,0.29947 z m 5.08442,-18.95831 v -0.22135 h 12.46818 v 3.02082 h -0.19881 q 0,-2.42187 -3.52176,-2.42187 h -4.35961 v 8.71093 h 3.83418 q 1.13605,0 2.0307,-0.33855 0.89464,-0.33853 1.02244,-1.54947 h 0.21301 v 4.34895 h -0.21301 q -0.1278,-0.74219 -0.48282,-1.13281 -0.35502,-0.40364 -0.71003,-0.53385 -0.34081,-0.13021 -0.61063,-0.13021 -0.51122,-0.0781 -1.06505,-0.0781 h -4.01879 v 6.80988 q 0,0.76823 0.31241,1.32813 0.32663,0.55989 1.49108,0.55989 h 3.10994 q 1.12186,0 1.84609,-0.29948 0.72424,-0.29948 1.13605,-0.83333 0.42603,-0.53386 0.71004,-1.28906 h 0.19881 l -0.72424,3.00781 h -12.46818 v -0.20834 h 0.28401 q 0.66743,0 1.30646,-0.49479 0.63903,-0.49478 0.63903,-1.61458 v -14.4531 q 0,-0.88542 -0.44022,-1.53646 -0.42601,-0.65104 -1.50527,-0.65104 z m 41.41028,3.46354 h -0.2272 q -0.19881,-1.39323 -1.33487,-2.4349 -1.12185,-1.05468 -2.96794,-1.05468 -1.20706,0 -2.1443,0.52082 -0.93725,0.52084 -1.44846,1.41928 -0.51123,0.89843 -0.51123,2.05729 0,0.89844 0.29822,1.60156 0.31241,0.6901 0.90884,1.22395 0.59642,0.53386 1.40586,1.0026 0.80944,0.45573 2.18691,1.15886 2.30051,1.15885 3.57856,2.31771 1.27806,1.14583 1.27806,3.15103 0,1.22396 -0.69583,2.36979 -0.68163,1.13281 -2.07329,1.86197 -1.39167,0.72917 -3.45077,0.72917 -1.29226,0 -2.2863,-0.26041 -0.99405,-0.2474 -2.0165,-0.70313 -0.42602,-0.13021 -0.58223,-0.13021 -0.29821,0 -0.39761,0.19532 -0.0852,0.19531 -0.24142,0.84635 h -0.24141 v -4.80469 h 0.24141 q 0.51123,2.10938 1.9881,3.19011 1.47686,1.08072 3.59277,1.08072 1.59047,0 2.54191,-0.54687 0.96565,-0.54688 1.33487,-1.32812 0.36921,-0.78125 0.36921,-1.5625 0,-1.61458 -1.07925,-2.6302 -1.06505,-1.02865 -3.25195,-2.09635 -1.50527,-0.75521 -2.22951,-1.17188 -0.72422,-0.41666 -1.47687,-1.08073 -0.73843,-0.66405 -1.17865,-1.56249 -0.44022,-0.91146 -0.44022,-2.08333 0,-1.35417 0.78104,-2.59115 0.78103,-1.23697 2.21531,-1.97916 1.43426,-0.7552 3.25195,-0.7552 1.37746,0 2.82593,0.42968 0.2272,0.10416 0.61062,0.10416 0.46862,0 0.63904,-0.58594 h 0.2272 z m 5.92227,-3.46354 v -0.22135 h 12.46818 v 3.02082 h -0.19882 q 0,-2.42187 -3.52176,-2.42187 h -4.35961 v 8.71093 h 3.83419 q 1.13604,0 2.0307,-0.33855 0.89464,-0.33853 1.02244,-1.54947 h 0.21301 v 4.34895 h -0.21301 q -0.1278,-0.74219 -0.48282,-1.13281 -0.35502,-0.40364 -0.71004,-0.53385 -0.34081,-0.13021 -0.61062,-0.13021 -0.51123,-0.0781 -1.06506,-0.0781 h -4.01879 v 6.80988 q 0,0.76823 0.31242,1.32813 0.32662,0.55989 1.49107,0.55989 h 3.10994 q 1.12186,0 1.8461,-0.29948 0.72422,-0.29948 1.13604,-0.83333 0.42603,-0.53386 0.71004,-1.28906 h 0.19881 l -0.72423,3.00781 h -12.46818 v -0.20834 h 0.284 q 0.66744,0 1.30647,-0.49479 0.63902,-0.49478 0.63902,-1.61458 v -14.4531 q 0,-0.88542 -0.44021,-1.53646 -0.42602,-0.65104 -1.50528,-0.65104 z m 41.41028,3.46354 h -0.22721 q -0.19881,-1.39323 -1.33487,-2.4349 -1.12184,-1.05468 -2.96794,-1.05468 -1.20705,0 -2.1443,0.52082 -0.93724,0.52084 -1.44846,1.41928 -0.51123,0.89843 -0.51123,2.05729 0,0.89844 0.29822,1.60156 0.31242,0.6901 0.90884,1.22395 0.59642,0.53386 1.40587,1.0026 0.80943,0.45573 2.1869,1.15886 2.30051,1.15885 3.57856,2.31771 1.27806,1.14583 1.27806,3.15103 0,1.22396 -0.69583,2.36979 -0.68163,1.13281 -2.07329,1.86197 -1.39167,0.72917 -3.45076,0.72917 -1.29226,0 -2.28631,-0.26041 -0.99405,-0.2474 -2.0165,-0.70313 -0.42602,-0.13021 -0.58223,-0.13021 -0.2982,0 -0.39761,0.19532 -0.0852,0.19531 -0.24141,0.84635 h -0.24142 v -4.80469 h 0.24142 q 0.51122,2.10938 1.98809,3.19011 1.47687,1.08072 3.59277,1.08072 1.59047,0 2.54191,-0.54687 0.96565,-0.54688 1.33487,-1.32812 0.36922,-0.78125 0.36922,-1.5625 0,-1.61458 -1.07926,-2.6302 -1.06504,-1.02865 -3.25195,-2.09635 -1.50527,-0.75521 -2.22951,-1.17188 -0.72422,-0.41666 -1.47686,-1.08073 -0.73844,-0.66405 -1.17865,-1.56249 -0.44023,-0.91146 -0.44023,-2.08333 0,-1.35417 0.78104,-2.59115 0.78104,-1.23697 2.21531,-1.97916 1.43426,-0.7552 3.25195,-0.7552 1.37746,0 2.82593,0.42968 0.22721,0.10416 0.61062,0.10416 0.46863,0 0.63904,-0.58594 h 0.22721 z m 12.61075,-3.68489 v 0.22135 q -0.93725,0 -1.59047,0.48177 -0.65324,0.48177 -0.65324,1.60155 v 14.55728 q 0,1.10677 0.69584,1.61458 0.69583,0.49479 1.54787,0.49479 V 290.05 h -6.6317 v -0.20834 q 0.90883,0 1.56206,-0.48176 0.66743,-0.4948 0.66743,-1.62761 V 273.175 q 0,-1.19791 -0.66743,-1.64062 -0.65323,-0.4427 -1.56206,-0.4427 v -0.22135 z m 5.14121,0.22135 v -0.22135 h 12.46818 v 3.02082 h -0.1988 q 0,-2.42187 -3.52177,-2.42187 h -4.3596 v 8.71093 h 3.83417 q 1.13606,0 2.0307,-0.33855 0.89464,-0.33853 1.02244,-1.54947 h 0.21302 v 4.34895 h -0.21302 q -0.1278,-0.74219 -0.48282,-1.13281 -0.35502,-0.40364 -0.71003,-0.53385 -0.34082,-0.13021 -0.61063,-0.13021 -0.51122,-0.0781 -1.06504,-0.0781 h -4.01879 v 6.80988 q 0,0.76823 0.31241,1.32813 0.32662,0.55989 1.49107,0.55989 h 3.10995 q 1.12185,0 1.84608,-0.29948 0.72424,-0.29948 1.13606,-0.83333 0.42602,-0.53386 0.71002,-1.28906 h 0.19882 l -0.72424,3.00781 h -12.46818 v -0.20834 h 0.28401 q 0.66743,0 1.30646,-0.49479 0.63904,-0.49478 0.63904,-1.61458 v -14.4531 q 0,-0.88542 -0.44023,-1.53646 -0.42602,-0.65104 -1.50527,-0.65104 z m 39.56362,-0.22135 v 0.22135 q -0.79524,0.0912 -1.26387,0.28646 -0.45441,0.18229 -0.71002,0.74218 -0.25562,0.54687 -0.25562,1.58854 v 16.8229 h -0.14201 L 554.50201,274.0995 v 11.79685 q 0,1.47136 0.12781,2.18751 0.12781,0.71613 0.36922,1.02863 0.52543,0.67709 1.83189,0.72917 V 290.05 h -5.24005 v -0.20834 q 0.88044,-0.0391 1.36327,-0.33854 0.49701,-0.3125 0.69583,-1.11979 0.213,-0.82031 0.213,-2.46093 v -12.51301 l -0.69582,-0.71615 q -0.92305,-0.96354 -1.47687,-1.21094 -0.55383,-0.26042 -1.37747,-0.39062 v -0.22135 h 3.93358 l 15.81955,16.24997 v -12.3828 q 0,-1.39323 -0.12782,-2.08333 -0.1136,-0.6901 -0.63902,-1.10677 -0.51123,-0.41667 -1.61888,-0.45573 v -0.22135 z m 22.89205,3.73697 h -0.22722 q -0.15621,-1.875 -1.19286,-2.42187 -1.03664,-0.5599 -2.55611,-0.5599 h -4.1608 v 16.10675 q 0,2.04427 2.2721,2.10937 V 290.05 h -6.6601 v -0.20834 q 0.93724,-0.026 1.57627,-0.49479 0.65323,-0.48177 0.65323,-1.61458 v -16.10675 h -4.16079 q -1.51948,0 -2.55613,0.5599 -1.02244,0.54687 -1.19284,2.42187 h -0.22722 v -4.68749 h 0.22722 q 0.2272,0.32552 0.39761,0.48176 0.1704,0.15626 0.44023,0.27344 0.26981,0.10417 0.62483,0.15625 0.36921,0.0391 0.86623,0.0391 h 13.54743 q 1.34907,0 2.1017,-0.95052 h 0.22722 z m 4.5732,-3.51562 v -0.22135 h 12.46819 v 3.02082 h -0.19881 q 0,-2.42187 -3.52176,-2.42187 h -4.35961 v 8.71093 h 3.83418 q 1.13605,0 2.03069,-0.33855 0.89465,-0.33853 1.02245,-1.54947 h 0.21301 v 4.34895 h -0.21301 q -0.1278,-0.74219 -0.48282,-1.13281 -0.35502,-0.40364 -0.71003,-0.53385 -0.34082,-0.13021 -0.61064,-0.13021 -0.51121,-0.0781 -1.06504,-0.0781 h -4.01879 v 6.80988 q 0,0.76823 0.31241,1.32813 0.32663,0.55989 1.49108,0.55989 h 3.10994 q 1.12186,0 1.84609,-0.29948 0.72423,-0.29948 1.13605,-0.83333 0.42602,-0.53386 0.71004,-1.28906 h 0.19881 l -0.72424,3.00781 h -12.46819 v -0.20834 h 0.28402 q 0.66743,0 1.30646,-0.49479 0.63903,-0.49478 0.63903,-1.61458 v -14.4531 q 0,-0.88542 -0.44022,-1.53646 -0.42602,-0.65104 -1.50527,-0.65104 z"
       id="text3"
       style="font-weight:300;font-size:27.8486px;line-height:0px;font-family:'Perpetua Titling MT';-inkscape-font-specification:'Perpetua Titling MT Light';letter-spacing:2.92411px;direction:rtl;fill:#b28e56;stroke:#b28e56;stroke-width:1.05581;paint-order:markers stroke fill"
       aria-label="HERENCIA QUE SE SIENTE" />
    <g
       id="layer1"
       style="display:inline"
       transform="matrix(0.16801465,0,0,0.16801465,275.61205,261.30585)">
      <path
         d="m 743,654.16257 c 0,-0.37833 1.18992,-1.58147 2.64428,-2.67364 11.80555,-8.8656 16.34405,-31.53078 16.35111,-81.65714 C 761.99988,537.98735 761.76344,534 759.87067,534 c -2.0841,0 -10.38218,8.94986 -16.60941,17.91401 -20.57235,29.61406 -48.04334,36.01523 -68.15043,15.88012 -33.73188,-33.7789 14.03618,-83.39268 57.23585,-59.44739 6.96509,3.86071 10.65332,5.2075 10.65332,3.89017 0,-3.77758 -38.99556,-23.41649 -54,-27.19543 -1.925,-0.48482 -6.425,-1.60881 -10,-2.49776 -3.575,-0.88895 -8.12721,-2.04994 -10.11602,-2.57999 -15.78091,-4.20587 -22.44081,-0.63298 -36.71306,19.69572 -3.92297,5.5877 -7.70379,10.77357 -8.4018,11.52416 -0.69802,0.75058 -3.20781,3.71562 -5.57733,6.58898 -22.39827,27.16093 -53.87714,41.65275 -90.19179,41.52127 -14.7715,-0.0535 -18.02104,-0.51476 -47.5,-6.74277 -19.70707,-4.1635 -37.1204,-3.01845 -52.5,3.45223 -13.19707,5.55243 -12.79367,6.02776 -5.8673,-6.91342 18.58588,-34.72571 30.04614,-49.83127 50.8673,-67.04721 34.4802,-28.5099 88.54673,-42.26685 130.42904,-33.187 15.60235,3.3825 35.70378,13.74984 34.20959,17.64363 -0.37546,0.97845 1.77775,1.30534 9.18547,1.39449 5.32175,0.0641 11.7009,0.37015 14.1759,0.68022 5.5778,0.69881 4.16596,-0.6761 -8.49736,-8.27502 -33.52761,-20.11905 -66.69139,-32.00122 -122.20507,-43.78458 -15.40505,-3.26988 -17.92758,-3.18434 -31.42646,1.06567 -51.80656,16.31085 -95.67001,11.06963 -136.50139,-16.31048 -2.27165,-1.52329 -12.64499,-8.47792 -23.05186,-15.45474 -23.04192,-15.44741 -32.13639,-20.10461 -45.36464,-23.23083 -12.08285,-2.85554 -12.17754,-2.92536 -7.30013,-5.3826 47.94511,-24.15474 111.38743,-33.388 152.34691,-22.17224 35.68517,9.77152 52.65609,23.66464 73.25636,59.97079 4.91544,8.66304 7.09449,9.55346 39.24364,16.03603 43.91759,8.85557 73.51353,20.43832 115,45.00673 29.42241,17.42404 34.15281,20.12778 46.75,26.72075 12.25496,6.41386 13.23827,6.38075 9.40769,-0.31676 -1.27503,-2.22929 -7.1821,-14.37929 -13.12684,-27 -12.49879,-26.53498 -11.0084,-24.77725 -22.84637,-26.94455 -51.01007,-9.33892 -72.77831,-17.25908 -97.01842,-35.29918 -19.532,-14.5362 -45.86921,-45.00864 -62.10023,-71.85065 -22.81952,-37.73772 -28.00328,-45.74554 -33.40412,-51.60237 -3.44758,-3.73866 18.46123,-3.46658 61.33829,0.76174 103.31077,10.188 170.85848,71.97567 156.86468,143.48826 -2.67197,13.65459 -2.99004,12.57965 15.83029,53.5 4.04734,8.8 7.79671,17.02298 8.33192,18.27328 0.70444,1.64564 0.97311,-0.97729 0.97311,-9.5 0,-40.65198 41.29971,-55.44018 58.01453,-20.77328 3.78723,7.8548 5.865,18.46291 4.97224,25.38588 -0.76835,5.95825 -0.0112,4.74898 6.89215,-11.00731 2.98288,-6.80822 7.42446,-16.65357 9.87017,-21.87857 9.46384,-20.21854 10.03358,-22.21727 8.19484,-28.74909 -2.72282,-9.67242 -3.03556,-31.97226 -0.59273,-42.26493 11.1474,-46.96864 61.8524,-84.41221 139.27876,-102.85168 9.64029,-2.29588 72.33234,-8.24671 77.13504,-7.32178 2.379,0.45816 2.2036,1.14517 -1.3244,5.18748 -4.4527,5.10178 -15.2367,21.44462 -24.812,37.60203 -35.59435,60.06189 -80.95533,101.49866 -119.23037,108.91565 -0.88097,0.17071 -4.50189,1.20615 -8.04648,2.30096 -5.75939,1.77889 -22.13781,5.06853 -41.00864,8.23665 -9.14034,1.53452 -12.22975,6.25066 -26.82181,40.94471 -1.50362,3.575 -3.92353,8.84754 -5.37758,11.71676 -1.45404,2.86921 -2.64372,5.66855 -2.64372,6.22074 0,1.69336 31.67478,-15.48993 46,-24.95459 43.73598,-28.89636 69.74068,-39.31322 133.47724,-53.46784 28.34216,-6.29423 25.74016,-4.84427 34.12396,-19.01507 31.4552,-53.16692 87.053,-71.70701 163.8988,-54.65501 30.7157,6.81576 74.326,25.15501 59.8181,25.15501 -5.4256,0 -18.9143,4.44596 -28.7298,9.46958 -10.1685,5.20425 -12.6251,6.75953 -38.0883,24.11365 -50.7363,34.57868 -90.9721,41.07132 -144.8789,23.37838 -15.3156,-5.0268 -13.7966,-5.1095 -48.9347,2.6642 -49.50921,10.95305 -123.59077,41.13649 -117.04074,47.68652 0.54709,0.54708 13.12372,0.0182 19.35434,-0.81398 1.375,-0.18364 3.04838,-0.37089 3.71862,-0.41612 0.67023,-0.0452 0.95959,-0.75723 0.64301,-1.58223 -0.31659,-0.825 -0.10002,-1.5 0.48125,-1.5 0.58127,0 3.04261,-1.34017 5.46965,-2.97816 57.96157,-39.11779 160.87657,-3.82086 201.11907,68.97816 9.3115,16.84452 13.4465,23.53683 16.0593,25.99149 4.3086,4.0477 1.7188,4.02409 -9.7632,-0.089 -20.4991,-7.34326 -38.4578,-7.57309 -67.7277,-0.86674 -58.81024,13.47464 -104.68158,-5.17229 -139.07751,-56.53573 -12.32511,-18.40509 -14.29574,-19.8909 -25.49517,-19.22273 -20.49642,1.22283 -64.15222,17.50463 -76.17406,28.40976 -4.54703,4.12466 -2.3603,3.86136 7.02438,-0.84579 41.68287,-20.9072 86.22185,28.94221 54.51783,61.01806 -20.11268,20.34857 -49.09913,13.07941 -70.55414,-17.69343 -16.38639,-23.50292 -16.38737,-23.50206 -17.0048,15.02297 -0.8073,50.37228 4.26159,79.01049 15.26019,86.21706 3.36344,2.2038 3.15588,3.5941 -0.53656,3.5941 -8.26141,0 -14.71522,-6.72163 -20.14017,-20.97596 -0.89015,-2.3389 -1.06997,-2.16187 -3.24827,3.19772 C 761.14247,648.11968 743,661.73619 743,654.16257 Z"
         id="path49"
         style="fill:#ab9d6a"
         inkscape:original-d="M 0,0"
         inkscape:path-effect="#path-effect49" />
      <path
         style="display:inline;fill:#1a2e2c;fill-opacity:1"
         d="m 743,654.16257 c 0,-0.37833 1.18992,-1.58147 2.64428,-2.67364 11.80555,-8.8656 16.34405,-31.53078 16.35111,-81.65714 C 761.99988,537.98735 761.76344,534 759.87067,534 c -2.0841,0 -10.38218,8.94986 -16.60941,17.91401 -20.57235,29.61406 -48.04334,36.01523 -68.15043,15.88012 -33.73188,-33.7789 14.03618,-83.39268 57.23585,-59.44739 6.96509,3.86071 10.65332,5.2075 10.65332,3.89017 0,-3.77758 -38.99556,-23.41649 -54,-27.19543 -1.925,-0.48482 -6.425,-1.60881 -10,-2.49776 -3.575,-0.88895 -8.12721,-2.04994 -10.11602,-2.57999 -15.78091,-4.20587 -22.44081,-0.63298 -36.71306,19.69572 -3.92297,5.5877 -7.70379,10.77357 -8.4018,11.52416 -0.69802,0.75058 -3.20781,3.71562 -5.57733,6.58898 -22.39827,27.16093 -53.87714,41.65275 -90.19179,41.52127 -14.7715,-0.0535 -18.02104,-0.51476 -47.5,-6.74277 -19.70707,-4.1635 -37.1204,-3.01845 -52.5,3.45223 -13.19707,5.55243 -12.79367,6.02776 -5.8673,-6.91342 18.58588,-34.72571 30.04614,-49.83127 50.8673,-67.04721 34.4802,-28.5099 88.54673,-42.26685 130.42904,-33.187 15.60235,3.3825 35.70378,13.74984 34.20959,17.64363 -0.37546,0.97845 1.77775,1.30534 9.18547,1.39449 5.32175,0.0641 11.7009,0.37015 14.1759,0.68022 5.5778,0.69881 4.16596,-0.6761 -8.49736,-8.27502 -33.52761,-20.11905 -66.69139,-32.00122 -122.20507,-43.78458 -15.40505,-3.26988 -17.92758,-3.18434 -31.42646,1.06567 -51.80656,16.31085 -95.67001,11.06963 -136.50139,-16.31048 -2.27165,-1.52329 -12.64499,-8.47792 -23.05186,-15.45474 -23.04192,-15.44741 -32.13639,-20.10461 -45.36464,-23.23083 -12.08285,-2.85554 -12.17754,-2.92536 -7.30013,-5.3826 47.94511,-24.15474 111.38743,-33.388 152.34691,-22.17224 35.68517,9.77152 52.65609,23.66464 73.25636,59.97079 4.91544,8.66304 7.09449,9.55346 39.24364,16.03603 43.91759,8.85557 73.51353,20.43832 115,45.00673 29.42241,17.42404 34.15281,20.12778 46.75,26.72075 12.25496,6.41386 13.23827,6.38075 9.40769,-0.31676 -1.27503,-2.22929 -7.1821,-14.37929 -13.12684,-27 -12.49879,-26.53498 -11.0084,-24.77725 -22.84637,-26.94455 -51.01007,-9.33892 -72.77831,-17.25908 -97.01842,-35.29918 -19.532,-14.5362 -45.86921,-45.00864 -62.10023,-71.85065 -22.81952,-37.73772 -28.00328,-45.74554 -33.40412,-51.60237 -3.44758,-3.73866 18.46123,-3.46658 61.33829,0.76174 103.31077,10.188 170.85848,71.97567 156.86468,143.48826 -2.67197,13.65459 -2.99004,12.57965 15.83029,53.5 4.04734,8.8 7.79671,17.02298 8.33192,18.27328 0.70444,1.64564 0.97311,-0.97729 0.97311,-9.5 0,-40.65198 41.29971,-55.44018 58.01453,-20.77328 3.78723,7.8548 5.865,18.46291 4.97224,25.38588 -0.76835,5.95825 -0.0112,4.74898 6.89215,-11.00731 2.98288,-6.80822 7.42446,-16.65357 9.87017,-21.87857 9.46384,-20.21854 10.03358,-22.21727 8.19484,-28.74909 -2.72282,-9.67242 -3.03556,-31.97226 -0.59273,-42.26493 11.1474,-46.96864 61.8524,-84.41221 139.27876,-102.85168 9.64029,-2.29588 72.33234,-8.24671 77.13504,-7.32178 2.379,0.45816 2.2036,1.14517 -1.3244,5.18748 -4.4527,5.10178 -15.2367,21.44462 -24.812,37.60203 -35.59435,60.06189 -80.95533,101.49866 -119.23037,108.91565 -0.88097,0.17071 -4.50189,1.20615 -8.04648,2.30096 -5.75939,1.77889 -22.13781,5.06853 -41.00864,8.23665 -9.14034,1.53452 -12.22975,6.25066 -26.82181,40.94471 -1.50362,3.575 -3.92353,8.84754 -5.37758,11.71676 -1.45404,2.86921 -2.64372,5.66855 -2.64372,6.22074 0,1.69336 31.67478,-15.48993 46,-24.95459 43.73598,-28.89636 69.74068,-39.31322 133.47724,-53.46784 28.34216,-6.29423 25.74016,-4.84427 34.12396,-19.01507 31.4552,-53.16692 87.053,-71.70701 163.8988,-54.65501 30.7157,6.81576 74.326,25.15501 59.8181,25.15501 -5.4256,0 -18.9143,4.44596 -28.7298,9.46958 -10.1685,5.20425 -12.6251,6.75953 -38.0883,24.11365 -50.7363,34.57868 -90.9721,41.07132 -144.8789,23.37838 -15.3156,-5.0268 -13.7966,-5.1095 -48.9347,2.6642 -49.50921,10.95305 -123.59077,41.13649 -117.04074,47.68652 0.54709,0.54708 13.12372,0.0182 19.35434,-0.81398 1.375,-0.18364 3.04838,-0.37089 3.71862,-0.41612 0.67023,-0.0452 0.95959,-0.75723 0.64301,-1.58223 -0.31659,-0.825 -0.10002,-1.5 0.48125,-1.5 0.58127,0 3.04261,-1.34017 5.46965,-2.97816 57.96157,-39.11779 160.87657,-3.82086 201.11907,68.97816 9.3115,16.84452 13.4465,23.53683 16.0593,25.99149 4.3086,4.0477 1.7188,4.02409 -9.7632,-0.089 -20.4991,-7.34326 -38.4578,-7.57309 -67.7277,-0.86674 -58.81024,13.47464 -104.68158,-5.17229 -139.07751,-56.53573 -12.32511,-18.40509 -14.29574,-19.8909 -25.49517,-19.22273 -20.49642,1.22283 -64.15222,17.50463 -76.17406,28.40976 -4.54703,4.12466 -2.3603,3.86136 7.02438,-0.84579 41.68287,-20.9072 86.22185,28.94221 54.51783,61.01806 -20.11268,20.34857 -49.09913,13.07941 -70.55414,-17.69343 -16.38639,-23.50292 -16.38737,-23.50206 -17.0048,15.02297 -0.8073,50.37228 4.26159,79.01049 15.26019,86.21706 3.36344,2.2038 3.15588,3.5941 -0.53656,3.5941 -8.26141,0 -14.71522,-6.72163 -20.14017,-20.97596 -0.89015,-2.3389 -1.06997,-2.16187 -3.24827,3.19772 C 761.14247,648.11968 743,661.73619 743,654.16257 Z M 545.19238,548.03069 c 13.36099,-3.36719 21.93456,-8.63842 28.85017,-17.73778 4.85413,-6.38692 4.86307,-6.53902 0.24601,-4.18511 -4.20952,2.14613 -20.99648,2.84666 -19.74643,0.82403 0.3631,-0.5875 1.38844,-0.78872 2.27854,-0.44715 0.8901,0.34156 1.29623,0.29889 0.90251,-0.0948 -0.39372,-0.39373 2.09499,-2.60802 5.53048,-4.92066 8.70248,-5.85818 12.56912,-9.74269 18.82615,-18.91316 8.3503,-12.23841 20.16002,-22.64953 22.75202,-20.05753 3.93803,3.93803 -9.22853,39.05215 -18.09261,48.2515 -5.3728,5.57601 -1.60883,3.56455 6.91844,-3.69721 8.5211,-7.25651 18.45098,-18.15986 23.07991,-25.34256 3.6072,-5.59729 14.13885,-19.58665 16.59315,-22.04095 4.8921,-4.8921 -34.90805,-10e-4 -55.40924,6.80923 -14.68061,4.87675 -19.39486,10.49531 -22.92078,27.31755 -4.22239,20.14512 -9.6006,27.43028 -24.96615,33.81844 l -5.53455,2.30096 6.5,0.0269 c 3.575,0.0148 9.96157,-0.84546 14.19238,-1.91169 z m 464.27232,0.49609 c -15.86902,-5.01591 -24.40215,-14.90087 -29.47787,-34.14784 -4.66801,-17.70092 -6.71287,-22.05216 -11.20873,-23.85105 -19.07769,-7.63338 -46.93141,-13.18387 -61.949,-12.34475 l -5.6709,0.31686 10.91215,15 c 12.99328,17.86074 25.24213,31.34506 34.02499,37.45687 6.06575,4.22103 6.36829,3.75763 1.27758,-1.95687 -10.69441,-12.00487 -22.45488,-50.42233 -14.01254,-45.7742 1.17679,0.64791 2.75681,1.28037 3.51116,1.40546 1.31144,0.21748 6.09628,4.19505 8.86426,7.36874 0.71954,0.825 4.48717,6.10544 8.37251,11.73431 7.04076,10.20026 11.25106,14.38483 17.89169,17.78235 3.48311,1.78205 5.90757,4.17072 5.9682,5.88008 0.04,1.1272 -13.73386,0.0231 -17.48004,-1.40124 -3.96034,-1.50572 -3.93014,-0.96972 0.2854,5.06428 8.29954,11.87974 24.70704,18.67243 45.22644,18.72373 7.5,0.0188 7.5,0.0188 3.4647,-1.25673 z M 512,542.66343 c 7.48459,-3.36204 12.74621,-8.9462 18.583,-19.72218 2.70435,-4.99282 8.21652,-12.91009 12.24927,-17.59394 8.76146,-10.17603 8.63844,-10.5556 -2.0436,-6.30529 -21.14775,8.41456 -27.73142,12.37164 -28.40733,17.07412 -1.38762,9.65397 -6.00608,19.39845 -12.77871,26.96173 -3.6113,4.03288 2.98782,3.81228 12.39737,-0.41444 z m 522.1545,-2.37597 c -4.7917,-5.69548 -8.6735,-13.7193 -10.2985,-21.28746 -1.6189,-7.54004 -2.1171,-7.96002 -18.1835,-15.32953 C 981.42955,492.55046 977.36354,491.41405 985.38378,498 c 5.67174,4.65744 13.17185,14.27394 18.25342,23.40423 9.1815,16.49678 17.1682,22.50043 31.1885,23.44464 3.3565,0.22605 3.3565,0.22605 -0.6712,-4.56141 z M 463,539.52352 c 24.29124,-0.0293 29.823,-2.60148 37.4507,-17.41396 1.74591,-3.39043 1.74591,-3.39043 -3.1024,-0.59895 -17.19823,9.90217 -22.24461,11.86431 -34.62816,13.46423 -4.52108,0.58411 -9.90764,1.31828 -11.97014,1.63149 -4.01279,0.60937 -5.62013,-1.84679 -2,-3.05618 0.9625,-0.32155 3.42146,-2.09338 5.46435,-3.93741 4.62709,-4.17667 17.59298,-10.98611 27.03107,-14.19621 13.40873,-4.56061 20.20607,-8.38149 15.00458,-8.4343 -0.9625,-0.01 -5.73056,-0.43653 -10.5957,-0.94835 -18.9477,-1.99336 -25.83158,1.77001 -38.63578,21.12189 -8.6443,13.06473 -9.23154,14.40699 -5.76852,13.18514 1.2375,-0.43662 11.025,-0.80445 21.75,-0.81739 z m 632.9983,-0.31401 c 9e-4,-0.15977 -0.8333,-1.50977 -1.8539,-3 -1.0206,-1.49023 -3.833,-5.85951 -6.2497,-9.70951 -12.0279,-19.16123 -22.4885,-23.3957 -48.3947,-19.59034 l -5,0.73445 4.6369,2.09392 c 2.5503,1.15166 8.4003,3.32134 13,4.82152 17.1776,5.60237 40.0582,19.42171 34.4762,20.82272 -8.8202,2.21372 -29.882,-3.58045 -43.985,-12.10043 -9.51,-5.74522 -9.8546,-5.47516 -4.0919,3.2068 3.5404,5.33383 7.4492,8.89766 12.8292,11.69718 2.5064,1.30421 44.6256,2.27025 44.6329,1.02369 z M 518,497.86189 c 5.225,-2.53165 11.8625,-5.37242 14.75,-6.31282 6.8734,-2.23851 6.6459,-2.84997 -2,-5.3755 -20.85018,-6.0905 -33.08546,-5.68441 -47,1.55991 -6.46265,3.36465 -8.86414,5.63214 -4.85446,4.58359 3.16769,-0.82837 17.18189,3.57721 23.04483,7.2445 3.03534,1.89862 5.75299,3.32858 6.03922,3.17768 0.28623,-0.1509 4.79541,-2.34571 10.02041,-4.87736 z m 514.7832,0.77639 c 7.3503,-3.68034 14.1618,-5.59219 20.9382,-5.87689 6.0844,-0.25564 6.1725,-0.29895 4,-1.96765 -12.4819,-9.58738 -36.4851,-11.39605 -55.3955,-4.17411 -4.12211,1.57426 -4.71182,4.30379 -0.9535,4.41319 0.6202,0.018 5.8526,2.26288 11.6276,4.98851 12.0153,5.67089 13.3353,5.84549 19.7832,2.61695 z M 564.74523,480.3875 c 11.34555,-3.54347 11.38548,-3.11075 -0.80932,-8.77083 -17.72658,-8.2276 -28.46477,-9.36157 -43.38655,-4.5817 -11.67632,3.74026 -12.21131,4.44121 -3.47463,4.55247 7.45606,0.0949 15.44056,2.89103 25.92527,9.07874 6.54136,3.86049 8.57588,3.83442 21.74523,-0.27868 z m 426.4994,0.95807 c 9.42547,-5.95001 18.63567,-9.2953 28.25537,-10.26273 6.8032,-0.68419 6.9157,-0.73976 4,-1.97725 -17.5883,-7.46494 -35.13908,-6.24673 -56.82203,3.94405 -8.17608,3.84268 -8.03634,4.04716 5.32203,7.78807 13.2389,3.70746 14.13853,3.7312 19.24463,0.50786 z m -392.66952,-10.3127 c 6.00869,-1.08192 16.03042,-2.27719 22.27051,-2.65615 l 11.34561,-0.68902 -7.84561,-2.344 c -16.00804,-4.78265 -32.12152,-8.21957 -41.54816,-8.862 -10.93192,-0.74502 -26.95807,0.35354 -22.79746,1.56271 4.76219,1.384 11.53665,4.79738 19.5,9.82527 4.4,2.77806 8.0338,5.06887 8.07511,5.09067 0.0413,0.0218 4.99131,-0.84556 11,-1.92748 z m 375.23492,-12.04696 c 7.50776,-2.32294 5.17992,-2.75633 -13.31003,-2.47802 -17.00061,0.25589 -26.09897,1.75322 -43.3803,7.13915 -4.69622,1.46363 -11.03183,2.9828 -14.07914,3.37594 -5.14407,0.66363 -4.89107,0.72417 3.53537,0.8459 7.80331,0.11273 16.79025,1.14548 34.92407,4.01336 3.54618,0.56083 5.29794,-0.0396 15.44019,-5.29188 6.29211,-3.25847 13.88354,-6.68047 16.86984,-7.60445 z M 688.05404,414.75 c -1.71544,-2.3375 -5.14185,-6.59691 -7.61424,-9.46536 -5.08611,-5.90087 -2.43745,-5.53985 -23.73244,-3.23485 -15.44677,1.67198 -36.66021,-3.28942 -36.69966,-8.58333 -0.035,-4.69805 39.60445,-5.36434 46.82906,-0.78713 6.23406,3.94964 2.04794,-0.47956 -9.02628,-9.55042 -13.92786,-11.40826 -12.09323,-10.95852 -30.31048,-7.43032 -10.1691,1.96949 -34.30615,0.0114 -39.51084,-3.20529 -4.86239,-3.00512 -7.0811,-1.11446 -2.98916,2.54719 25.16559,22.51934 66.87319,39.89065 105.33651,43.8729 0.46008,0.0476 -0.56703,-1.82589 -2.28247,-4.16339 z m 170.99249,1.7747 c 37.6574,-5.78106 69.02307,-20.35507 94.34949,-43.83933 3.34885,-3.10526 3.15664,-3.23206 -1.7755,-1.17128 -11.83054,4.94311 -30.83573,6.43535 -46.58743,3.65791 -6.3068,-1.11206 -11.89577,-1.75687 -12.41994,-1.43292 -0.54792,0.33864 -0.67133,-0.14508 -0.29032,-1.13798 0.97051,-2.52911 -14.02854,9.01429 -26.82283,20.64307 -0.55,0.4999 0.8,0.22994 3,-0.59992 11.5979,-4.37479 22.03974,-4.67341 42.5,-1.2154 1.375,0.23239 3.0625,0.45597 3.75,0.49684 3.25188,0.19332 0.58314,2.9473 -5.75089,5.93457 -9.39235,4.42966 -18.28478,5.26824 -35.88387,3.38393 -15.37452,-1.64613 -13.00325,-2.68124 -22.87234,9.98434 -5.89429,7.5645 -6.17738,8.26286 -2.9929,7.38323 1.2375,-0.34182 6.54594,-1.281 11.79653,-2.08706 z M 466.5,414.98283 c 6.72819,-0.96871 30.04815,-7.76801 29.27932,-8.53684 -0.20543,-0.20543 -3.50231,-1.47054 -7.32641,-2.81136 -3.8241,-1.34082 -9.52917,-3.38212 -12.67793,-4.53624 -8.2391,-3.01988 -15.23052,-1.74191 -21.27498,3.88887 -4.54595,4.23482 -21.66566,10.97236 -27.95,10.99984 -3.91325,0.0171 -2.14099,1.71965 2.45,2.35362 5.06439,0.69933 29.30909,-0.17858 37.5,-1.35789 z m 643.617,0.1696 c 1.9419,-0.71836 1.3466,-0.98901 -3.5104,-1.59584 -9.7747,-1.22127 -16.7949,-4.10869 -28.3848,-11.67465 -9.3973,-6.13461 -11.2408,-6.16303 -24.7757,-0.38194 -5.7945,2.475 -10.9654,4.5 -11.4908,4.5 -4.8144,0 4.3398,3.63584 19.297,7.66427 10.8833,2.93124 42.3714,3.89019 48.8647,1.48816 z M 702.43367,400.75 c 1.26171,-22.92389 -3.82599,-40.43503 -16.70359,-57.49128 -4.8905,-6.47742 -5.1316,-6.35914 -2.54925,1.25065 2.10196,6.19418 2.12823,10.80429 0.20312,35.65157 -0.59356,7.66094 -0.59356,7.66094 8.26125,20.20404 10.77029,15.25645 9.97153,15.22794 10.78847,0.38502 z M 841.57676,404 c 3.18882,-4.675 7.07395,-9.85 8.63361,-11.5 3.94001,-4.16821 4.12794,-5.63408 2.35344,-18.3567 -2.00873,-14.40199 -1.93353,-19.37973 0.39496,-26.1433 l 1.89348,-5.5 -3.90237,4.5 c -11.70144,13.49349 -17.77472,33.95713 -16.41329,55.30385 0.37897,5.94212 0.81352,10.66712 0.96567,10.5 0.15215,-0.16712 2.88567,-4.12885 6.0745,-8.80385 z m 296.70794,2.59768 c 4.9938,-1.44489 18.7153,-7.38256 18.7153,-8.09862 0,-0.13656 -2.8125,-0.22627 -6.25,-0.19935 -9.2512,0.0725 -15.733,-2.50717 -23.5553,-9.37457 -12.5823,-11.04617 -12.5645,-11.04296 -29.5769,-5.34481 -14.6822,4.9177 -14.6822,4.9177 -8.5385,6.16117 6.9629,1.40928 14.3295,4.94462 24.2054,11.61652 3.7316,2.52098 8.6816,5.07097 11,5.66665 2.3184,0.59569 4.6653,1.24817 5.2153,1.44997 0.55,0.2018 1.45,0.23862 2,0.0818 0.55,-0.15679 3.6031,-1.03824 6.7847,-1.9588 z M 416.73746,404.9632 c 2.33061,-1.01181 6.60561,-3.40839 9.5,-5.32574 9.55011,-6.32635 15.53439,-8.91969 22.01824,-9.54181 6.93471,-0.66538 6.49091,-1.02406 -7.3897,-5.97232 -17.63211,-6.28563 -18.4152,-6.20951 -30.36817,2.95193 -10.47087,8.02549 -18.06147,11.16919 -25.9825,10.76084 -8.2664,-0.42616 -8.17969,0.15193 0.61243,4.0832 14.19902,6.3489 22.21819,7.12111 31.6097,3.0439 z m 623.90784,-8.84221 c 3.7701,-1.58345 10.9047,-4.34121 15.8547,-6.12834 10.975,-3.96239 11.176,-4.11547 12.0286,-9.16182 1.1278,-6.67542 8.9003,-20.97916 14.48,-26.64758 l 5.056,-5.1364 -8.2823,3.67418 c -19.5884,8.68975 -30.7801,19.22724 -43.7077,41.15251 -1.6625,2.81955 -2.8565,5.12646 -2.6534,5.12646 0.2032,0 3.454,-1.29555 7.2241,-2.87901 z M 499.58806,395.17028 C 490.10156,376.82543 472.46537,359.55236 455.5,351.99 c -2.75,-1.22582 -5.9,-2.67672 -7,-3.22423 -1.1,-0.5475 0.18358,1.19372 2.8524,3.86939 5.75174,5.76648 11.76525,15.55637 15.58303,25.3689 3.32338,8.5418 2.6913,7.94905 12.56457,11.78281 6.60129,2.56326 20.22854,7.76387 21.27568,8.1195 0.15162,0.0515 -0.38281,-1.17974 -1.18762,-2.73609 z M 382.0395,383.07732 c 5.29142,-2.70748 12.2847,-5.66329 15.54063,-6.56847 9.04278,-2.51398 9.27631,-2.65328 6.01411,-3.58726 -11.2035,-3.20762 -17.0203,-3.16003 -27.75916,0.22713 -8.91879,2.81308 -11.80817,3.26606 -21.08471,3.30554 -12.33255,0.0525 -12.31988,0.044 -6.0358,4.04574 14.51782,9.24506 19.53527,9.63311 33.32493,2.57732 z m 800.7198,-0.31908 c 11.385,-6.45813 11.4193,-6.24454 -1.0126,-6.32249 -8.8198,-0.0553 -11.5696,-0.5143 -19.7467,-3.29618 -10.1927,-3.46761 -17.1685,-3.65039 -27.1245,-0.71074 -4.1657,1.22999 -4.1657,1.22999 0.7294,2.52959 2.6923,0.71478 8.9451,3.42071 13.8951,6.01317 17.2655,9.04247 20.191,9.19962 33.2593,1.78665 z M 882.64848,363.72466 c 4.13499,-3.75777 5.25364,-8.6023 5.24732,-22.72466 -0.006,-14.22608 2.9727,-23.29411 10.48951,-31.92933 2.07191,-2.38018 2.01355,-2.37225 -2.88531,0.3922 -17.52933,9.89191 -25.82156,23.13551 -27.55803,44.01325 -0.50429,6.06314 -1.96692,14.92305 -3.25027,19.68871 l -2.33338,8.66483 8.57084,-7.62187 c 4.71396,-4.19203 9.98766,-8.90944 11.71932,-10.48313 z M 672.36081,377.75 c -0.32406,-1.7875 -1.43781,-6.59725 -2.475,-10.68834 C 668.84861,362.97058 668,357.20678 668,354.25322 c 0,-22.08431 -9.33862,-38.75912 -26.96966,-48.15636 -6.54704,-3.48954 -6.65015,-3.26624 -1.5723,3.40486 7.4657,9.80819 9.00505,15.3329 9.37276,33.6389 l 0.33426,16.64062 8.16747,7.46664 c 9.99298,9.1355 15.09495,13.68405 15.39247,13.72281 0.12375,0.0161 -0.0401,-1.43319 -0.36419,-3.22069 z m 431.84319,-6.43635 c 7.704,-2.41257 7.704,-2.41257 11.1768,-9.61311 4.1381,-8.58011 9.4015,-14.97232 15.5267,-18.85681 5.4111,-3.43164 3.8035,-3.71143 -8.1661,-1.42128 -14.8091,2.83346 -18.9013,5.74974 -30.3714,21.64414 -4.6322,6.41882 -9.3104,12.47446 -10.396,13.45698 -3.6351,3.28966 -2.0326,3.35851 6.276,0.26968 4.5375,-1.68687 11.7168,-4.15269 15.954,-5.4796 z M 452.86724,376.75 C 439.24748,351.27928 428.42499,343.01182 405.5,340.56546 l -6,-0.64026 6.06942,4.41747 c 7.84695,5.7112 12.95097,11.7408 15.30601,18.08165 1.65549,4.45733 2.41749,5.27874 6.25486,6.74248 28.99196,11.05883 27.33428,10.57041 25.73695,7.5832 z m 446.56899,-9.64681 c 2.58007,-4.17465 15.31479,-6.32443 34.24539,-5.78105 24.94288,0.71595 28.67785,-0.30525 38.61209,-10.55712 7.72979,-7.97692 7.77691,-8.26527 1.08898,-6.66368 -7.04857,1.68795 -23.70464,1.42859 -31.38269,-0.48869 -3.575,-0.89271 -7.6259,-1.70967 -9.00201,-1.81546 -3.54612,-0.27263 -24.37315,14.1172 -35.96228,24.84709 -1.27955,1.18469 -1.25546,1.35572 0.19099,1.35572 0.9104,0 1.90468,-0.40356 2.20953,-0.89681 z m -554.30539,-3.1828 c 7.35304,-1.14378 16.21824,-2.02757 19.70044,-1.96397 4.20153,0.0767 6.1125,-0.23836 5.6809,-0.93671 -0.35771,-0.57878 -1.06928,-0.79344 -1.58128,-0.477 -0.51199,0.31643 -0.9309,0.11163 -0.9309,-0.45511 0,-4.864 -23.68905,-11.18231 -34.5,-9.20179 -8.48698,1.55478 -22.50219,5.30384 -22.48844,6.01565 0.008,0.41923 16.50256,7.66225 20.61928,9.0543 0.072,0.0243 6.14696,-0.89158 13.5,-2.03537 z m 288.53241,-2.22103 c -6.33267,-5.49815 -21.05521,-16.0529 -26.33314,-18.87852 -4.16988,-2.23241 -4.16988,-2.23241 -13.5,-0.0341 -14.35263,3.38164 -27.07904,3.46533 -34.58011,0.2274 -3.51842,-1.51877 -2.70722,0.0133 3.5,6.61012 6.51354,6.9224 11.15751,9.60919 19.63243,11.35841 5.46723,1.12843 8.87333,1.07597 30.61757,-0.47161 6.05275,-0.43079 15.4633,1.15686 20.43518,3.44761 5.67012,2.61245 5.68374,2.47744 0.22807,-2.25929 z M 1136,362.96001 c 3.025,-0.62275 8.2298,-1.48964 11.5663,-1.92642 5.458,-0.7145 6.5924,-1.29855 11.3122,-5.82383 2.8852,-2.76634 7.6918,-6.30771 10.6813,-7.86973 11.5219,-6.02023 -6.7412,-7.75867 -18.7871,-1.78833 -11.0885,5.49577 -28.7105,20.32805 -22.618,19.03742 1.2899,-0.27326 4.8203,-1.00636 7.8453,-1.62911 z m 81.3459,-2.48644 c 9.1052,-4.39449 9.1969,-4.27279 -5.9162,-7.85189 -17.4844,-4.14069 -26.5231,-3.1527 -39.0161,4.2647 l -6.0863,3.61362 14.0863,2.16713 c 19.7908,3.04473 26.9612,2.61885 36.9323,-2.19356 z m -812.29811,0.59354 c -8.78732,-12.34064 -26.89536,-20.66669 -40.50774,-18.62539 l -4.66818,0.70004 5.183,2.67063 c 2.85065,1.46884 8.10491,5.34802 11.67614,8.6204 6.42603,5.88829 6.59273,5.96756 16.13106,7.67037 14.48454,2.58583 14.74873,2.56337 12.18572,-1.03605 z m 508.432,-20.48495 c 10.91437,-7.47748 10.91437,-7.47748 12.71168,-18.15175 1.51352,-8.9889 4.38707,-17.84971 9.48562,-29.24963 0.45948,-1.02737 -0.21376,-0.98338 -3.04315,0.19881 -11.70243,4.88959 -20.8277,18.0659 -28.07166,40.53372 -2.0239,6.27732 -4.32838,12.66748 -5.12105,14.20034 -2.04103,3.94691 -1.79231,4.5648 0.84148,2.09048 1.25549,-1.17947 7.19418,-5.50936 13.19708,-9.62197 z m -276.79654,6.76077 C 635.87793,345.77932 633.59684,339.325 631.61417,333 c -7.58531,-24.19822 -16.48871,-37.31213 -29.12814,-42.90316 -5.94038,-2.62771 -6.30998,-2.29903 -3.0145,2.68077 4.07554,6.15856 6.26329,12.95377 8.48789,26.36361 1.45089,8.74594 2.52832,12.65111 3.68565,13.35878 0.89947,0.55 7.065,4.9198 13.70117,9.71066 12.7898,9.23337 13.64974,9.62267 11.33701,5.13227 z m 339.14267,-15.82424 c 9.91326,-1.76359 19.64768,-11.71359 35.05328,-35.82953 6.248,-9.78076 11.1938,-17.93584 10.9904,-18.12239 -0.4584,-0.4207 -20.2694,4.75794 -24.3696,6.3703 -12.61114,4.95914 -29.36776,17.9533 -21.5,16.67248 10.68486,-1.73942 25.5343,-1.87558 26.8863,-0.24653 1.1464,1.38134 1.1433,1.63698 -0.02,1.63698 -0.7583,0 -3.72069,2.42629 -6.58315,5.39175 -6.87064,7.11787 -11.9503,9.44884 -23.36917,10.72373 -5.58155,0.62316 -10.91548,1.86212 -13.35386,3.10182 -4.79161,2.43611 -15.19403,9.38134 -15.99691,10.68042 -0.53338,0.86304 27.10621,0.53833 32.26271,-0.37903 z M 591.82719,329.73745 C 579.00272,321.89501 574.54621,320.2333 561.68965,318.5 545.99989,316.38473 521.93938,300.35935 533.75,299.89093 c 9.29667,-0.36871 25.94837,0.46044 27.02417,1.34564 2.52225,2.0754 2.18256,0.004 -0.6378,-3.88962 -5.40584,-7.46254 -19.64612,-14.33351 -38.10435,-18.38544 -10.36336,-2.27495 -10.02079,-3.05961 -3.23498,7.4099 30.23742,46.6519 27.74823,44.91839 65.03015,45.2883 11.3272,0.11239 11.3272,0.11239 8,-1.92226 z m 354.3317,-11.65267 c 4.84837,-3.62163 9.83355,-7.30885 11.07817,-8.19382 1.24462,-0.88498 2.87479,-3.35998 3.62261,-5.5 1.97243,-5.64448 7.90156,-13.98268 13.56976,-19.0833 5.64476,-5.07953 5.14854,-5.12153 -7.92943,-0.67127 -13.08746,4.4535 -21.75326,14.01036 -28.33658,31.25033 -4.68646,12.27259 -5.27497,12.1108 7.99547,2.19806 z M 597.02189,316.25 c -7.66495,-21.84465 -18.68394,-32.58682 -35.49336,-34.60168 -4.97146,-0.5959 -4.97146,-0.5959 -2,1.21126 4.01896,2.44422 10.60859,11.22914 14.35737,19.14042 2.77127,5.84836 3.8907,7.05139 11.16616,12 4.44737,3.025 9.29253,6.49828 10.76703,7.7184 4.05052,3.35172 4.14574,2.9188 1.2028,-5.4684 z"
         id="path4-8" />
      <path
         style="display:inline;fill:#702c13;fill-opacity:0.996078"
         d="m 692.20496,568.10577 c -25.6614,-8.86358 -25.81639,-42.22888 -0.25059,-53.94495 14.54486,-6.66549 38.0819,-2.33876 49.11326,9.02831 2.33028,2.40119 4.02716,3.46651 4.44493,2.79055 1.22581,-1.9834 -0.36871,-5.42709 -4.50704,-9.73385 -4.35354,-4.53074 -4.63951,-5.42108 -0.5887,-2.76689 4.25824,2.79011 5.3154,0.3342 1.41036,-3.50087 -3.32718,-3.26757 -3.32718,-3.26757 0.83756,-0.10632 10.22423,7.76072 15.57408,15.22572 12.08526,16.86337 -4.44588,2.08689 -11.0108,8.70271 -16.53326,16.66145 -16.1277,23.24259 -29.48718,30.41689 -46.01178,24.7092 z m 2.89658,-25.24837 c 2.27369,-3.1931 7.2599,-5.8574 10.96205,-5.8574 7.25673,0 10.02075,-6.36945 5.2331,-12.05925 -10.00963,-11.89577 -27.67124,-4.3083 -27.60759,11.8603 0.042,10.6566 7.04291,21.44408 8.51378,13.11853 0.38659,-2.18817 1.69098,-5.36616 2.89866,-7.06218 z M 825.5,568.66106 c -10.15469,-3.36353 -18.53232,-10.85583 -27.98627,-25.02877 -3.25333,-4.87724 -8.49228,-11.15716 -11.66518,-13.9291 -7.03359,-6.14476 -6.49256,-7.43534 2.65145,-15.14091 6.51367,-5.48901 13.83109,-10.35468 8.75,-5.81825 -4.54686,1.13958 -2.38893,6.36627 0.57874,3.91096 4.50601,-4.07788 2.74467,-1.08149 -2.28402,3.75839 -3.07079,2.95549 -5.54472,6.1008 -5.54472,6.94098 0,2.99934 2.16594,2.78158 5.39406,-0.54231 14.38885,-14.81573 46.41167,-15.51031 59.5186,-1.29098 20.61862,22.36856 -0.7591,56.63087 -29.41266,47.13999 z m 23.19584,-19.77763 c 10.68488,-16.14594 -6.75613,-37.50623 -22.0389,-26.99141 -9.05769,6.23186 -8.65822,11.86178 1.03108,14.53129 11.24704,3.09869 12.81968,4.61551 15.89081,15.32669 0.64927,2.26445 2.35312,1.30994 5.11701,-2.86657 z m -82.14226,-26.77981 c -0.87664,-1.69523 -3.52877,-5.26082 -5.89362,-7.92352 -10.22425,-11.51196 -12.89059,-17.14523 -14.78783,-31.24284 -4.40232,-32.71173 27.68398,-51.99621 41.06741,-24.6823 7.07828,14.44589 6.0806,34.56039 -2.25138,45.39061 -1.75349,2.27926 -6.04775,7.90392 -9.5428,12.49927 -3.49506,4.59534 -6.49938,8.50948 -6.67627,8.69809 -0.17689,0.18861 -1.03887,-1.04408 -1.91551,-2.73931 z M 761.5,471.47116 c 5.14764,-1.8545 9.35928,-1.84573 13.84576,0.0288 8.21416,3.4321 10.51527,-1.95028 5.25141,-12.28324 -6.89537,-13.53565 -21.77038,-10.16861 -25.59991,5.79467 -1.92632,8.02981 -0.84288,9.10609 6.50274,6.45973 z"
         id="path3-8" />
      <path
         style="display:inline;fill:#4e2210;fill-opacity:0.992157"
         d="m 693.79233,568.6598 c -26.91645,-7.59939 -27.80999,-43.0328 -1.37999,-54.72405 14.15375,-6.26088 38.63061,-1.39658 48.57369,9.28351 5.98481,6.42843 6.54639,0.34172 2.14222,-4.66562 -4.3121,-4.90266 -7.74019,-8.13728 -3.08949,-5.27618 4.75972,2.92816 5.96488,1.05258 1.97954,-3.05393 -5.55916,-5.72818 5.11684,2.84672 8.9176,7.07465 6.19663,6.89308 5.00869,8.59014 3.70097,9.44343 -6.5449,4.27058 -10.27923,8.16092 -16.99641,17.25839 -16.93237,22.9325 -27.97325,29.14179 -43.84813,24.6598 z m 13.98909,-7.71946 c 18.89006,-6.61346 25.27325,-18.27545 27.18111,-22.58854 3.80712,-8.60663 0.63894,-17.85499 -9.25253,-21.32556 -8.91433,-3.12773 -21.85511,-7.11121 -36.93604,1.35138 -5.76688,4.09484 -9.95841,13.8976 -10.51741,19.02298 -0.49799,4.56597 0.34455,10.6103 2.00716,12.94865 4.97559,6.99781 9.03896,10.96544 16.59649,11.22651 4.94603,0.17086 7.15531,0.68304 10.92122,-0.63542 z m 118.93608,7.96808 c -9.60151,-2.26089 -18.26255,-9.58677 -27.66558,-23.40074 -3.85899,-5.66922 -9.65114,-12.847 -13.04035,-15.75909 -8.42252,-7.23684 -5.19022,-8.4273 3.98843,-16.39712 4.90392,-4.25808 12.05381,-8.958 6.94583,-4.37671 -4.33239,3.88567 -0.69468,4.96504 0.84672,3.66943 5.56562,-4.6781 1.02082,0.82244 -2.23933,3.77597 -8.546,7.74222 -5.55748,12.02347 -0.0323,6.29056 15.02588,-15.59095 46.59882,-15.38943 59.89206,-0.67541 19.66626,21.76821 0.14037,53.66315 -28.69544,46.87311 z M 843.5,562 c 6.49921,-1.69724 11.51382,-8.367 12.5363,-9.46862 7.29816,-7.86301 4.39604,-24.64637 -3.06384,-30.63544 -11.44567,-9.18901 -34.06777,-14.16718 -47.35758,-1.27714 -2.28939,2.29434 -5.68849,5.64134 -5.64841,9.64502 0.0503,5.02641 5.41707,13.70957 10.86743,19.78781 2.93365,3.2716 6.98682,9.31573 13.89654,11.43426 9.32656,2.85953 13.10691,1.99289 18.76956,0.51411 z m -1.49368,-6.72432 c 0.003,-0.42662 1.37048,-1.55201 3.03778,-2.50085 1.735,-0.98737 3.86124,-3.55337 4.97171,-6 9.00865,-19.84805 -13.85464,-37.82784 -27.49247,-21.6202 C 821.1355,526.80398 820,527.7572 820,527.27289 c 0,-1.37806 5.87896,-7.60396 9.70034,-8.66094 3.42381,-0.94701 6.61145,-1.59249 11.73797,0.31833 2.24518,0.83685 5.85022,3.13211 8.08827,6.67249 2.12368,3.35946 3.76459,5.98022 4.10252,9.6589 0.27555,2.99956 0.18315,4.64776 -0.6291,7.40047 -2.03523,6.89735 -5.48968,10.33302 -7.36007,11.46199 -1.56969,0.94747 -3.63708,1.57817 -3.63361,1.15155 z M 765.68998,520.75 c -1.37503,-2.3375 -4.79764,-6.86923 -7.6058,-10.07052 -18.81817,-21.45257 -15.32714,-58.95935 6.02288,-64.70831 25.83532,-6.95673 37.63798,38.50458 16.36354,63.02883 -2.62414,3.025 -6.34225,7.8625 -8.26246,10.75 -4.17492,6.27799 -3.47642,6.17082 -6.51816,1 z m 7.01241,-11.94617 c 4.65827,-4.51496 7.87329,-10.58498 9.93897,-14.66151 4.05101,-7.99451 4.67413,-17.23403 4.35861,-22.64232 -0.25318,-4.33972 -1.3967,-2.68449 -3.48992,1.48369 -0.76932,1.53383 -6.01112,1.25163 -9.97927,-0.40637 -3.38726,-1.41529 -7.66247,-1.23816 -12.25446,0.50771 -6.93432,2.63642 -8.59451,1.46729 -8.02319,-5.65008 0.0225,-0.28079 0.68309,-11.80086 -2.90896,1.30309 -0.59395,2.16674 -1.34545,11.58946 1.25302,19.77196 1.956,6.58508 7.36533,13.52279 8.80585,15.58117 4.75999,5.69718 7.33645,9.42861 12.29932,4.71266 z M 762,471.5 c 2.3383,-0.825 5.48992,-1.5 7.0036,-1.5 1.51368,0 4.36765,0.675 6.34216,1.5 6.41771,2.68149 7.65424,2.16708 7.65424,-3.18428 0,-22.01101 -25.26784,-23.45842 -28.57286,-1.63672 -1.0095,6.66531 0.18686,7.42693 7.57286,4.821 z"
         id="path17-2" />
      <path
         id="path18-4"
         style="display:inline;fill:#e5e1d7;fill-opacity:1;stroke:#000000;stroke-width:0.16176;paint-order:markers stroke fill"
         d="m 769.19939,451.1747 c -2.107,0.006 -3.69616,0.39505 -5.75,1.40625 -1.24228,0.61163 -1.75803,0.98862 -2.90039,2.1211 -1.51382,1.50074 -2.7006,3.1942 -3.69336,5.27148 -1.3975,2.92415 -2.53516,7.45767 -2.53516,10.10156 v 1.47657 l 0.56641,0.5664 0.56641,0.56641 1.3125,-0.084 c 1.02149,-0.0657 1.97845,-0.30153 4.29687,-1.0586 5.896,-1.9253 8.90084,-2.03966 13.21094,-0.5 3.48572,1.2452 3.77306,1.32075 5.16601,1.33985 1.50222,0.0206 2.38231,-0.30139 3.01172,-1.10157 0.45738,-0.58142 0.59692,-2.41726 0.37891,-4.98633 -0.15255,-1.79778 -0.26405,-2.32461 -0.76563,-3.5996 -2.07045,-5.26297 -4.62831,-8.63761 -7.90625,-10.43165 -1.39668,-0.76441 -2.89519,-1.09289 -4.95898,-1.08789 z m 65.54492,68.03907 c -1.29489,0.0302 -2.57342,0.2406 -3.78515,0.63672 -4.33799,1.41809 -9.45964,5.77503 -10.48438,8.91796 -0.37057,1.13656 -0.25008,2.50511 0.30664,3.45508 1.025,1.74905 3.48852,3.11926 7.93945,4.41797 5.00403,1.4601 7.02225,2.28002 8.90235,3.61328 2.39938,1.7015 3.75092,4.05437 5.41406,9.42578 0.40871,1.32 0.84788,2.56177 0.97656,2.75977 0.12867,0.198 0.39388,0.35943 0.58985,0.35937 0.59124,-1.7e-4 2.14663,-1.36979 3.23437,-2.84765 3.78888,-5.14781 4.94132,-10.93615 3.36719,-16.92188 -1.43044,-5.43934 -5.34617,-10.29627 -10.05664,-12.47265 -2.03833,-0.94177 -4.24614,-1.39409 -6.4043,-1.34375 z m -135.06445,0.0898 c -3.12461,-0.0154 -5.06917,0.51108 -7.83203,2.11719 -1.57674,0.91659 -4.04371,3.30362 -5.13086,4.96484 -1.8918,2.89077 -2.95703,6.64512 -2.95703,10.41797 0,6.1376 2.82855,13.96412 5.67382,15.69922 0.62521,0.38123 1.06408,0.3756 1.56641,-0.0195 0.4828,-0.37978 0.84977,-1.24711 1.16797,-2.75977 0.55287,-2.62825 1.9975,-5.83233 3.42187,-7.58789 0.96891,-1.19419 2.97379,-2.73215 4.67188,-3.58594 2.02135,-1.01631 3.47781,-1.4195 5.79687,-1.60546 3.16549,-0.25383 4.77548,-0.905 6.17774,-2.49805 1.80757,-2.05351 1.75438,-5.35415 -0.13281,-8.22656 -1.99466,-3.03599 -5.20357,-5.40371 -8.7793,-6.48047 -1.21769,-0.36673 -1.70329,-0.42555 -3.64453,-0.43555 z" />
    </g>
    <g
       id="g19"
       transform="matrix(1.9493669,0,0,1.9493669,-373.76449,-544.84206)"
       style="display:inline">
      <path
         id="path17"
         style="display:inline;fill:#1a2e2c;fill-opacity:1;stroke-width:1;stroke-dasharray:none"
         d="m 398.52483,264 -0.29492,0.0137 -0.29492,0.0156 -0.10157,1.11718 c -0.11938,1.31634 -0.0299,1.16582 -0.71679,1.22071 -6.2934,0.5029 -11.29938,5.49632 -11.90625,11.875 -0.0316,0.33068 -0.0623,0.60452 -0.0664,0.60937 -0.004,0.005 -0.51547,0.0598 -1.13672,0.1211 l -1.1289,0.11132 -0.0137,0.29297 -0.0156,0.29297 0.54297,0.0547 c 0.29878,0.0302 0.81636,0.0819 1.15039,0.11328 l 0.60742,0.0566 0.0332,0.41211 c 0.5078,6.50619 5.62003,11.62719 12.08594,12.10547 l 0.44336,0.0332 0.0254,0.19727 c 0.0307,0.24292 0.17236,1.89735 0.17188,2.01367 0,0.0716 0.0467,0.084 0.3125,0.084 0.15584,0 0.28556,-0.0119 0.30859,-0.0254 h 0.002 v -0.002 h 0.002 v -0.002 c 0,-0.21115 0.20648,-2.2157 0.23047,-2.23633 0.0182,-0.0155 0.33876,-0.054 0.71289,-0.0859 6.20047,-0.52994 11.38309,-5.80378 11.7832,-11.99219 l 0.0332,-0.5039 1.08594,-0.10547 c 0.59822,-0.0574 1.11535,-0.10396 1.14844,-0.10352 0.005,6e-5 0.0131,-0.003 0.0176,-0.006 0.001,-8.7e-4 0.005,-0.005 0.006,-0.006 0.0248,-0.0311 0.0371,-0.12075 0.0371,-0.27735 0,-0.17107 -0.0205,-0.27817 -0.0527,-0.30664 -0.002,-0.002 -0.005,-0.003 -0.008,-0.004 -0.0526,-0.0184 -2.04993,-0.21679 -2.1836,-0.21679 h -0.002 -0.002 v -0.002 h -0.002 l -0.002,-0.002 -0.002,-0.002 c -0.028,-0.0332 -0.0561,-0.22141 -0.0742,-0.48633 -0.44337,-6.46975 -5.45518,-11.3862 -12.27539,-12.04297 l -0.24414,-0.0234 -0.082,-0.92382 c -0.0447,-0.50786 -0.0925,-1.02744 -0.10743,-1.1543 z m 0.49024,3.41602 c 0.008,-6.4e-4 0.0152,1.1e-4 0.0234,0 0.0881,-10e-4 0.21199,0.0252 0.38282,0.043 5.78694,0.60322 10.73368,5.70314 10.75195,11.08399 0,0.23403 -0.0109,0.27482 -0.082,0.26953 -0.0463,-0.003 -0.45262,-0.0434 -0.90235,-0.0898 -0.69781,-0.0721 -2.925,-0.25838 -4.49218,-0.375 l -0.45313,-0.0332 -0.12891,-0.48242 c -0.18114,-0.67327 -0.39076,-1.14563 -0.74804,-1.6875 -0.15861,-0.24057 -0.27747,-0.46304 -0.27735,-0.51367 v -0.002 -0.002 l 0.002,-0.002 c 0.0173,-0.0291 0.2175,-0.29102 0.44531,-0.58203 0.81905,-1.04616 1.68359,-2.19482 1.68359,-2.23633 0,-0.0832 -0.41499,-0.38288 -0.48828,-0.35547 h -0.002 c -0.1035,0.0631 -1.95924,1.46596 -2.38672,1.80469 l -0.39844,0.31641 -0.39453,-0.26563 c -0.54015,-0.36359 -1.19311,-0.66556 -1.70117,-0.78711 -0.56924,-0.13618 -0.56609,-0.13375 -0.58008,-0.38086 -0.0277,-0.48948 -0.17257,-2.34864 -0.30664,-3.95703 -0.12156,-1.4589 -0.18372,-1.74584 0.0527,-1.76562 z m -1.51368,0.002 c 0.14839,0.004 0.15384,0.054 0.14063,0.1582 -0.0604,0.47696 -0.45508,5.40133 -0.45508,5.67774 0,0.10199 -0.0455,0.12364 -0.51367,0.24218 -0.60263,0.15261 -1.23151,0.43954 -1.77149,0.8086 l -0.38671,0.26562 -0.35938,-0.28515 c -0.76847,-0.60756 -2.44841,-1.86328 -2.49219,-1.86328 h -0.002 -0.002 -0.002 c -0.0339,0.01 -0.1401,0.0896 -0.24609,0.18554 l -0.20703,0.18555 0.70703,0.93359 c 0.38815,0.51274 0.88693,1.15799 1.10937,1.43555 l 0.4043,0.50586 -0.13672,0.17187 c -0.3986,0.50325 -0.82598,1.4195 -0.98633,2.11719 l -0.084,0.36719 -0.5332,0.0312 c -0.29368,0.0176 -1.33367,0.0965 -2.3125,0.17578 -0.97884,0.0793 -2.07763,0.17334 -2.44141,0.20703 l -0.66211,0.0606 v -0.24219 c 0.0204,-5.28552 4.79546,-10.31567 10.5,-11.0625 0.32173,-0.0421 0.52878,-0.0685 0.66016,-0.0742 0.0273,-10e-4 0.0511,-0.003 0.0723,-0.002 z m 0.71289,6.95312 c 2.15531,-0.007 4.25309,1.38635 4.86914,3.8086 0.7176,2.82164 -1.23513,5.75412 -4.10937,6.16992 -4.6808,0.67714 -7.62589,-4.93789 -4.39258,-8.375 1.02651,-1.09121 2.3396,-1.5996 3.63281,-1.60352 z m 0.59961,2 c -2.30742,0.0312 -4.22615,3.20684 -2.96875,5.08985 0.24106,0.36097 0.25938,0.35592 0.40821,-0.0859 0.32282,-0.95858 0.92671,-1.72531 1.73437,-2.20508 0.95061,-0.56464 1.8457,-1.79904 1.8457,-2.54492 v -0.002 -0.002 l -0.002,-0.002 v -0.002 l -0.002,-0.002 c -0.0422,-0.0752 -0.49815,-0.21416 -0.79102,-0.23632 -0.0752,-0.006 -0.15017,-0.009 -0.22461,-0.008 z m 1.63086,0.78321 c -0.0962,0.004 -0.18687,0.12714 -0.27343,0.36914 -0.31567,0.88246 -0.79867,1.45701 -1.75586,2.08789 -0.84663,0.558 -1.31429,1.13965 -1.61719,2.00976 -0.19988,0.57427 -0.21264,0.547 0.3418,0.72657 1.93286,0.62597 4.4298,-2.33202 3.75585,-4.44922 -0.15948,-0.5011 -0.31057,-0.75021 -0.45117,-0.74414 z m 9.65821,2.82812 h 0.002 c 0.14043,0.0127 0.10748,0.0715 0.0937,0.19531 -0.0989,0.88851 -0.14278,1.18973 -0.24805,1.69532 -1.02863,4.9396 -5.24561,8.82164 -10.21289,9.40039 -0.67369,0.0785 -0.85606,0.0991 -0.90234,0.0723 -9.2e-4,-6.6e-4 -0.005,-0.003 -0.006,-0.004 l -0.002,-0.002 -0.002,-0.002 c -4.7e-4,-8.7e-4 -0.002,-0.005 -0.002,-0.006 -0.004,-0.0127 0,-0.0293 0,-0.0508 0,-0.0525 0.0528,-0.73078 0.11719,-1.50586 0.0644,-0.77508 0.16581,-2.07786 0.22656,-2.89453 0.0648,-0.87101 0.13145,-1.49007 0.16016,-1.49805 0.0269,-0.007 0.21174,-0.0503 0.41015,-0.0957 0.65797,-0.15048 1.46418,-0.53484 1.98242,-0.94531 l 0.1875,-0.14844 0.1836,0.13867 c 1.26952,0.9566 2.36696,1.80126 2.51562,1.93555 l 0.18555,0.16601 0.21289,-0.20898 c 0.11042,-0.10835 0.20383,-0.2155 0.21484,-0.24414 v -0.002 c 0,-0.0349 -0.49686,-0.69335 -1.55468,-2.0586 -0.2958,-0.3818 -0.55292,-0.71841 -0.57227,-0.75 l -0.002,-0.002 v -0.002 -0.002 c -0.009,-0.0453 0.084,-0.2274 0.22851,-0.44336 0.42085,-0.62875 0.73685,-1.38719 0.86719,-2.08203 l 0.0293,-0.16601 1.88476,-0.15625 c 1.03639,-0.0863 2.32875,-0.19905 2.8711,-0.25 0.67807,-0.0637 0.99043,-0.0967 1.13086,-0.084 z m -23.73243,0.006 c 0.13718,-0.0193 0.44728,0.0166 1.14063,0.0801 0.98975,0.0906 3.40394,0.29376 4.29297,0.36133 l 0.41211,0.0312 0.10742,0.44726 c 0.1338,0.55508 0.43469,1.22773 0.79297,1.77735 0.14424,0.22128 0.24843,0.42864 0.24219,0.47461 l -0.002,0.002 c -0.0182,0.0314 -0.17815,0.24194 -0.35547,0.4668 -0.17732,0.22487 -0.65058,0.83971 -1.05078,1.36523 l -0.72656,0.95508 0.19727,0.23437 c 0.23894,0.28539 0.17488,0.29046 0.58789,-0.0449 0.18971,-0.15405 0.6991,-0.55015 1.13281,-0.8789 0.43367,-0.32876 0.92356,-0.6987 1.08789,-0.82422 l 0.29883,-0.22852 0.40429,0.27149 c 0.63178,0.42521 1.72604,0.88281 2.11329,0.88281 0.13189,0 0.12724,-0.0222 0.23437,1.41992 0.11596,1.56099 0.2806,3.58087 0.33594,4.13477 0.0199,0.19841 0.0274,0.38003 0.0195,0.41796 v 0.002 h -0.002 v 0.002 l -0.002,0.002 c -0.0141,0.0177 -0.0558,0.0298 -0.0976,0.0254 -0.0447,-0.005 -0.17975,-0.0177 -0.29883,-0.0273 -5.76257,-0.46515 -10.9668,-5.72895 -10.9668,-11.09375 0,-0.16114 -0.0358,-0.23654 0.10156,-0.25586 z" />
      <path
         style="display:inline;fill:#b28e56;fill-opacity:1;stroke:none;stroke-width:0.0508233;stroke-dasharray:none;stroke-opacity:1;paint-order:markers stroke fill"
         d="m 397.2095,284.28002 c -1.99618,-0.44362 -3.52829,-2.07275 -3.88962,-4.13594 -0.19413,-1.10846 0.0291,-2.28858 0.61763,-3.26482 0.29769,-0.49383 0.90634,-1.15894 1.38587,-1.51442 0.45666,-0.33854 1.19411,-0.68458 1.76212,-0.82685 0.57874,-0.14497 1.68429,-0.15784 2.21982,-0.0258 1.86793,0.46038 3.22598,1.78028 3.73483,3.62994 0.11948,0.4343 0.13653,0.58919 0.1358,1.2336 -6.8e-4,0.59238 -0.0223,0.81694 -0.11028,1.14477 -0.25449,0.94833 -0.72194,1.76753 -1.37736,2.41382 -0.64012,0.63121 -1.37995,1.05822 -2.24258,1.29436 -0.45183,0.12368 -1.77418,0.15407 -2.23623,0.0514 z m 1.09142,-1.91485 c 1.00112,-0.25673 2.09617,-1.38918 2.53549,-2.62207 0.14524,-0.40761 0.15798,-0.49526 0.1568,-1.07895 -10e-4,-0.54489 -0.0183,-0.67868 -0.12087,-0.94023 -0.29923,-0.76296 -0.50683,-0.77927 -0.79285,-0.0623 -0.29487,0.73919 -0.7456,1.26182 -1.62379,1.88282 -0.89986,0.63633 -1.29058,1.09061 -1.60721,1.86865 -0.1857,0.45633 -0.23181,0.71821 -0.13937,0.79168 0.0824,0.0655 0.51733,0.20688 0.72909,0.23702 0.1915,0.0273 0.59848,-0.009 0.86271,-0.0767 z m -1.95671,-1.14504 c 0.32005,-0.83698 0.86202,-1.497 1.66165,-2.02364 0.96132,-0.63311 1.79042,-1.73163 1.81299,-2.40211 l 0.008,-0.23939 -0.27953,-0.0935 c -0.32423,-0.10852 -0.96043,-0.12556 -1.34521,-0.036 -1.11657,0.25978 -2.18217,1.33659 -2.6178,2.64533 -0.14062,0.42243 -0.19165,1.20277 -0.10336,1.58036 0.0801,0.34252 0.27317,0.76217 0.44415,0.96538 0.16607,0.19736 0.20674,0.1589 0.41906,-0.39635 z"
         id="path5" />
    </g>
    <path
       style="display:inline;fill:none;stroke:#1a2e2c;stroke-width:3.5;stroke-linecap:square;stroke-linejoin:miter;stroke-dasharray:none;paint-order:markers stroke fill"
       d="m 694.25116,3.3077346 -239.49999,-1"
       id="path14-38" />
    <path
       style="display:inline;fill:none;stroke:#b28e56;stroke-width:2.00334;stroke-linecap:square;stroke-linejoin:miter;stroke-dasharray:none;paint-order:markers stroke fill"
       d="m 695.00265,-2.2129554 -241.10973,-0.99667"
       id="path14-3-7" />
    <path
       style="display:inline;fill:none;stroke:#1a2e2c;stroke-width:3.5;stroke-linecap:square;stroke-linejoin:miter;stroke-dasharray:none;paint-order:markers stroke fill"
       d="M 350.27092,1.686549 110.77093,0.68654904"
       id="path14-38-4" />
    <path
       style="display:inline;fill:none;stroke:#b28e56;stroke-width:2.00334;stroke-linecap:square;stroke-linejoin:miter;stroke-dasharray:none;paint-order:markers stroke fill"
       d="m 351.12917,-3.8341414 -241.10973,-0.99667"
       id="path14-3-7-8" />
  </g>
</svg>
