<?xml version="1.0" encoding="UTF-8" standalone="no"?>
<!-- Created with Inkscape (http://www.inkscape.org/) -->

<svg
   version="1.1"
   id="svg1"
   width="586.99481"
   height="231.05327"
   viewBox="0 0 586.99481 231.05326"
   sodipodi:docname="2. Logotipo - Cafe Mendez.svg"
   inkscape:version="1.4.4 (dcaf3e7, 2026-05-05)"
   inkscape:export-filename="2- Logotipo principal cafe mendezv4.png"
   inkscape:export-xdpi="300"
   inkscape:export-ydpi="300"
   xmlns:inkscape="http://www.inkscape.org/namespaces/inkscape"
   xmlns:sodipodi="http://sodipodi.sourceforge.net/DTD/sodipodi-0.dtd"
   xmlns="http://www.w3.org/2000/svg"
   xmlns:svg="http://www.w3.org/2000/svg">
  <defs
     id="defs1">
    <inkscape:path-effect
       effect="fill_between_many"
       method="originald"
       linkedpaths="#path4-8,0,1"
       id="path-effect49"
       is_visible="true"
       lpeversion="0"
       join="true"
       close="true"
       autoreverse="true" />
  </defs>
  <sodipodi:namedview
     id="namedview1"
     pagecolor="#ffffff"
     bordercolor="#000000"
     borderopacity="0.25"
     inkscape:showpageshadow="2"
     inkscape:pageopacity="0.0"
     inkscape:pagecheckerboard="0"
     inkscape:deskcolor="#d1d1d1"
     inkscape:zoom="1"
     inkscape:cx="249.5"
     inkscape:cy="237"
     inkscape:window-width="1920"
     inkscape:window-height="1009"
     inkscape:window-x="-8"
     inkscape:window-y="-8"
     inkscape:window-maximized="1"
     inkscape:current-layer="g1"
     showguides="false" />
  <g
     inkscape:groupmode="layer"
     inkscape:label="Image"
     id="g1"
     style="display:inline"
     transform="translate(-109.01364,-14.169053)">
    <path
       d="m 316.57124,66.833182 h -1.81959 q -0.83181,-5.562746 -3.22327,-9.877773 -2.33947,-4.315028 -5.71871,-7.122395 -3.32725,-2.859355 -7.5383,-4.315027 -4.15906,-1.455672 -8.83801,-1.455672 -6.23859,0 -11.02152,2.651402 -4.73093,2.651403 -7.27835,6.602512 -3.06731,4.990875 -4.31503,11.073504 -1.24772,6.030641 -1.24772,12.893094 0,12.477187 4.36702,19.9635 4.36701,7.486313 10.50163,10.449643 6.1866,2.91135 12.16526,2.91135 14.45274,0 25.05835,-14.140817 v 7.018417 q -3.48322,4.05509 -7.48632,7.17438 -4.00309,3.1193 -9.98175,5.19883 -5.97865,2.07953 -13.98484,2.07953 -9.46187,0 -16.89619,-3.17128 -7.38234,-3.22328 -12.26924,-8.63006 -4.8869,-5.40678 -7.38233,-12.373208 -2.49544,-6.96643 -2.49544,-14.348766 0,-6.34257 1.61163,-11.80134 1.61164,-5.458769 4.36702,-9.66982 2.75538,-4.263039 6.55052,-7.902219 6.49854,-5.926664 13.51696,-8.058183 7.01841,-2.183508 15.12859,-2.183508 8.00619,0 17.46806,2.651402 3.32725,0.779824 4.8869,0.779824 2.85935,0 4.36701,-3.743156 h 1.50766 z m 59.99659,-27.033906 25.7342,66.233074 q 2.07953,5.09485 4.8869,7.01841 2.80737,1.87158 6.91444,2.54743 v 1.50766 h -36.28782 v -1.50766 q 7.43433,-0.41591 7.43433,-4.67895 0,-0.67584 -0.25995,-1.87157 -0.20795,-1.24772 -0.62386,-2.59942 -0.36391,-1.40368 -0.46789,-1.71561 l -6.39456,-16.272333 h -22.87484 l -5.45877,15.648473 q -1.03977,2.80737 -1.03977,5.09485 0,3.5352 2.07953,4.78292 2.07954,1.19573 4.93889,1.61164 v 1.50766 h -22.97882 v -1.50766 q 3.58719,-0.36392 6.70649,-3.32725 3.1193,-3.01532 6.03064,-11.02152 l 21.7311,-61.450144 z m -20.17145,43.56618 h 19.0797 l -9.87777,-25.786188 z m 125.96973,-42.838344 1.19573,13.568941 h -1.50766 q -1.14375,-3.379238 -2.2355,-5.14684 -1.03977,-1.767601 -3.5352,-2.963332 -2.49544,-1.19573 -7.01842,-1.19573 h -14.97263 v 31.348934 h 13.04906 q 4.10708,0 7.48631,-2.079532 3.43123,-2.131519 3.69117,-7.642277 h 1.61164 v 22.147008 h -1.61164 q -0.25994,-3.431227 -2.59941,-5.822688 -2.33947,-2.391461 -7.27836,-2.391461 h -14.34877 v 25.370285 q 0,4.36701 2.02755,7.12239 2.02754,2.75538 7.33034,2.75538 h 0.51989 v 1.50766 h -36.28782 v -1.50766 q 5.87467,0 7.59029,-2.6514 1.7676,-2.6514 1.7676,-7.22637 V 51.860557 q 0,-4.055086 -1.55965,-6.914441 -1.50766,-2.911344 -7.27836,-2.911344 h -0.51988 v -1.50766 z m 71.9019,0 0.62386,17.156133 h -1.50766 q -1.03976,-4.315028 -2.33947,-7.122395 -1.24772,-2.807367 -3.58719,-4.263039 -2.33947,-1.50766 -6.39456,-1.50766 h -15.44052 v 32.180746 h 12.32122 q 5.51076,0 8.0062,-2.443449 2.54743,-2.443449 2.96333,-7.226371 h 1.50766 v 22.458937 h -1.50766 q -0.77982,-5.094851 -3.79514,-6.810465 -3.01532,-1.715613 -7.17439,-1.715613 h -12.32122 v 22.043034 q 0,9.56584 9.87778,9.56584 h 4.67894 q 4.73093,0 7.69427,-1.24772 3.01532,-1.24772 4.93888,-4.26304 1.97556,-3.06731 3.53521,-8.630051 h 1.50766 l -1.14375,18.403851 h -57.70699 v -1.50766 q 6.03064,0 7.79824,-2.70339 1.76761,-2.75538 1.76761,-7.17438 V 52.06851 q 0,-4.21105 -1.61164,-7.122394 -1.61164,-2.911344 -7.43433,-2.911344 h -0.51988 v -1.50766 z M 527.90996,14.169053 h 21.00326 v 0.415906 l -30.25718,20.223442 h -2.75538 z"
       id="text1"
       style="font-weight:bold;font-size:106.472px;line-height:0px;font-family:'Perpetua Titling MT';-inkscape-font-specification:'Perpetua Titling MT Bold';letter-spacing:11.1796px;direction:rtl;fill:#1a2e2c;stroke-width:4.03662;paint-order:markers stroke fill"
       aria-label="CAFÉ" />
    <path
       d="m 226.0846,145.48376 v 1.71562 q -3.43124,0.23663 -5.67929,0.88738 -2.18889,0.59159 -3.66786,2.83964 -1.47898,2.18889 -1.06487,6.56667 l 4.79189,58.50843 q 0.53244,6.15255 1.71562,9.11051 1.24234,2.8988 3.01712,3.90451 1.83393,1.00571 5.73844,1.89309 v 1.71562 h -39.99161 v -1.71562 q 5.02853,-0.11832 7.86817,-2.66216 2.8988,-2.54384 2.30721,-10.05706 l -4.25946,-55.49131 h -0.23664 l -28.45556,69.92615 h -2.07057 l -29.34295,-67.61894 h -0.23664 l -3.84535,48.56968 q -0.59159,7.15826 1.00571,11.00361 1.5973,3.78619 4.2003,4.96937 2.66216,1.12403 6.15255,1.36066 v 1.71562 h -29.57958 v -1.71562 q 5.62012,-0.35495 8.45976,-4.49609 2.8988,-4.14115 3.9045,-13.78409 l 5.85676,-55.13636 q -5.5018,-8.81472 -15.02643,-10.29369 v -1.71562 h 31.47268 l 25.20181,57.32524 23.36788,-57.32524 z m 83.12122,0 0.70991,19.52253 h -1.71562 q -1.18318,-4.91021 -2.66216,-8.10481 -1.41982,-3.19459 -4.08198,-4.85105 -2.66217,-1.71562 -7.27658,-1.71562 h -17.57028 v 36.61953 h 14.02073 q 6.27087,0 9.11051,-2.78048 2.8988,-2.78048 3.37207,-8.22312 h 1.71562 v 25.55676 h -1.71562 q -0.88739,-5.7976 -4.31862,-7.74985 -3.43123,-1.95225 -8.16396,-1.95225 h -14.02073 v 25.08349 q 0,10.88529 11.24024,10.88529 h 5.32433 q 5.38349,0 8.75556,-1.41982 3.43123,-1.41982 5.62012,-4.85106 2.24805,-3.49039 4.02282,-9.82042 h 1.71562 l -1.3015,20.94235 h -65.66669 v -1.71562 q 6.86247,0 8.87388,-3.07627 2.01141,-3.13544 2.01141,-8.16397 V 158.6171 q 0,-4.7919 -1.83393,-8.10481 -1.83394,-3.31291 -8.45977,-3.31291 h -0.59159 v -1.71562 z m -29.99371,-29.9937 h 23.90031 v 0.47327 l -34.43064,23.01292 h -3.13544 z m 82.05637,29.9937 53.1841,56.14206 v -39.87329 q 0,-7.86817 -3.1946,-10.70781 -3.19459,-2.8988 -9.76126,-3.84534 v -1.71562 h 30.05286 v 1.71562 q -4.96937,0.53243 -7.3949,2.72132 -2.42552,2.12973 -3.13543,5.02853 -0.70991,2.8988 -0.70991,6.8033 v 71.81925 h -2.18889 l -63.7736,-67.08651 v 49.04296 q 0,6.15255 2.60301,10.53033 2.66216,4.31862 9.76126,4.85105 v 1.71562 h -31.11773 v -1.71562 q 13.07418,-1.06486 12.95586,-12.83754 v -57.6802 q -0.35495,-0.23663 -0.94654,-0.82823 -0.53244,-0.53243 -1.77478,-1.71561 -1.24234,-1.18319 -2.24805,-2.12973 -7.92733,-7.63154 -13.9024,-8.51892 v -1.71562 z m 85.54673,0 h 47.62314 q 11.65436,0 20.88319,3.60871 9.28799,3.54955 15.4997,9.87958 6.21172,6.33003 9.34715,14.43484 3.13544,8.04565 3.13544,17.03784 0,8.75556 -2.95796,16.32794 -2.8988,7.57237 -8.81472,13.42913 -5.91591,5.85676 -14.78979,9.16967 -8.87388,3.25376 -19.9958,3.25376 h -49.93035 v -1.71562 q 6.86247,0 8.81472,-3.01712 2.01141,-3.07627 2.01141,-8.22312 v -60.93395 q 0,-4.85106 -1.77478,-8.16397 -1.77477,-3.37207 -8.4006,-3.37207 h -0.65075 z m 30.17118,5.85676 v 63.83275 q 0,4.61442 1.00571,7.33574 1.06486,2.72132 3.9045,4.02282 2.83964,1.24235 8.57808,1.24235 5.14685,0 9.22884,-0.65075 4.08198,-0.70991 7.69069,-2.72133 5.32433,-3.07627 8.75556,-8.45976 3.49039,-5.38348 5.08769,-11.83184 1.59729,-6.44835 1.59729,-13.31081 0,-7.0991 -1.89309,-14.13904 -1.89309,-7.03995 -6.21171,-13.01502 -4.25946,-5.97508 -11.5952,-9.64295 -7.27658,-3.66787 -17.74776,-3.66787 -3.72702,0 -8.4006,1.00571 z m 148.13717,-5.85676 0.70991,19.52253 h -1.71562 q -1.18318,-4.91021 -2.66216,-8.10481 -1.41982,-3.19459 -4.08198,-4.85105 -2.66217,-1.71562 -7.27658,-1.71562 h -17.57028 v 36.61953 h 14.02073 q 6.27087,0 9.11051,-2.78048 2.8988,-2.78048 3.37207,-8.22312 h 1.71562 v 25.55676 h -1.71562 q -0.88739,-5.7976 -4.31862,-7.74985 -3.43123,-1.95225 -8.16396,-1.95225 h -14.02073 v 25.08349 q 0,10.88529 11.24024,10.88529 h 5.32433 q 5.38349,0 8.75556,-1.41982 3.43123,-1.41982 5.62012,-4.85106 2.24805,-3.49039 4.02282,-9.82042 h 1.71562 l -1.3015,20.94235 h -65.66669 v -1.71562 q 6.86247,0 8.87388,-3.07627 2.01141,-3.13544 2.01141,-8.16397 V 158.6171 q 0,-4.7919 -1.83393,-8.10481 -1.83394,-3.31291 -8.45977,-3.31291 h -0.59159 v -1.71562 z m 104.06359,0 -56.97029,82.29042 h 32.95166 q 5.50181,0 9.28799,-0.88739 3.84535,-0.88739 6.44835,-2.83964 2.66217,-2.01141 4.4961,-5.08769 1.83394,-3.07628 3.66787,-8.16397 h 1.65646 l -3.01712,21.82974 h -82.23126 l 56.79281,-82.29042 h -31.591 q -4.43694,0 -8.04565,1.00571 -3.54955,0.94654 -6.8033,4.91021 -3.25376,3.90451 -4.91021,11.77268 h -1.71562 l 1.95225,-22.53965 z"
       id="text1-8"
       style="font-weight:bold;font-size:121.158px;line-height:0px;font-family:'Perpetua Titling MT';-inkscape-font-specification:'Perpetua Titling MT Bold';letter-spacing:12.7218px;direction:rtl;fill:#1a2e2c;stroke-width:4.59344;paint-order:markers stroke fill"
       transform="scale(0.95248987,1.0498799)"
       aria-label="MÉNDEZ" />
  </g>
</svg>
