<?xml version="1.0" encoding="UTF-8" standalone="no"?>
<!-- Created with Inkscape (http://www.inkscape.org/) -->

<svg
   version="1.1"
   id="svg1"
   width="418.8891"
   height="418.8891"
   viewBox="0 0 418.8891 418.8891"
   sodipodi:docname="3. sello DKAFEEL plano.svg"
   inkscape:version="1.4.4 (dcaf3e7, 2026-05-05)"
   inkscape:export-filename="3. sello DKAFEEL plano vect2.png"
   inkscape:export-xdpi="300"
   inkscape:export-ydpi="300"
   xmlns:inkscape="http://www.inkscape.org/namespaces/inkscape"
   xmlns:sodipodi="http://sodipodi.sourceforge.net/DTD/sodipodi-0.dtd"
   xmlns="http://www.w3.org/2000/svg"
   xmlns:svg="http://www.w3.org/2000/svg">
  <sodipodi:namedview
     id="namedview1"
     pagecolor="#ffffff"
     bordercolor="#000000"
     borderopacity="0.25"
     inkscape:showpageshadow="2"
     inkscape:pageopacity="0.0"
     inkscape:pagecheckerboard="0"
     inkscape:deskcolor="#d1d1d1"
     inkscape:zoom="1.9328849"
     inkscape:cx="162.71015"
     inkscape:cy="248.85082"
     inkscape:window-width="1920"
     inkscape:window-height="1009"
     inkscape:window-x="-8"
     inkscape:window-y="-8"
     inkscape:window-maximized="1"
     inkscape:current-layer="g11" />
  <defs
     id="defs1" />
  <g
     id="layer2"
     transform="translate(-76.644653,-20.085175)">
    <g
       id="g11">
      <ellipse
         style="display:none;fill:none;stroke:#000000;stroke-width:1.3616;stroke-dasharray:none;stroke-opacity:1;paint-order:markers stroke fill"
         id="path3-8"
         cx="286.31641"
         cy="229.25351"
         rx="163.45923"
         ry="154.29105" />
      <ellipse
         style="display:none;fill:none;stroke:#000000;stroke-width:1.35971;stroke-dasharray:none;stroke-opacity:1;paint-order:markers stroke fill"
         id="path3-8-6"
         cx="-195.55055"
         cy="311.43405"
         rx="163.23299"
         ry="154.07748"
         transform="matrix(-0.94535852,0.32603262,0.32603262,0.94535852,0,0)" />
      <g
         id="g10">
        <circle
           style="display:inline;opacity:1;fill:#1a2e2c;stroke:#b28e56;stroke-width:14;stroke-dasharray:none;stroke-opacity:1;paint-order:markers stroke fill"
           id="path1"
           cx="286.0892"
           cy="229.52972"
           r="202.44455" />
        <circle
           style="display:inline;opacity:1;fill:none;stroke:#b28e56;stroke-width:7;stroke-dasharray:none;stroke-opacity:1;paint-order:markers stroke fill"
           id="path1-8"
           cx="286.0892"
           cy="229.52972"
           r="186.0506" />
        <path
           style="font-weight:bold;font-size:63.0438px;line-height:0px;font-family:'Perpetua Titling MT';-inkscape-font-specification:'Perpetua Titling MT Bold';letter-spacing:6.17185px;fill:#e5e1d7;stroke:#000000;stroke-width:1.09562;paint-order:markers stroke fill"
           d="m 148.34154,166.31672 h 24.7804 q 6.06427,0 10.86643,1.87777 4.83295,1.84698 8.06518,5.14078 3.23222,3.29379 4.86373,7.51107 1.6315,4.18651 1.6315,8.86554 0,4.5559 -1.53915,8.49614 -1.50837,3.94023 -4.58668,6.98776 -3.07832,3.04753 -7.69578,4.77138 -4.61747,1.69307 -10.40469,1.69307 h -25.98094 v -0.89271 q 3.57084,0 4.58668,-1.56994 1.04663,-1.60072 1.04663,-4.27885 v -31.7066 q 0,-2.52421 -0.9235,-4.24806 -0.92349,-1.75464 -4.3712,-1.75464 h -0.33861 z m 15.69938,3.04753 v 33.21497 q 0,2.40108 0.52331,3.8171 0.5541,1.41602 2.03169,2.09325 1.47759,0.64645 4.46355,0.64645 2.67813,0 4.80216,-0.33862 2.12404,-0.36939 4.00181,-1.41602 2.77048,-1.60072 4.5559,-4.40198 1.8162,-2.80127 2.64734,-6.15662 0.83115,-3.35536 0.83115,-6.9262 0,-3.69398 -0.98506,-7.35717 -0.98506,-3.66318 -3.23223,-6.77228 -2.21638,-3.10909 -6.03349,-5.01764 -3.78632,-1.90856 -9.23493,-1.90856 -1.93933,0 -4.3712,0.52332 z m 44.65074,14.68354 v -1.07741 q 2.3703,-1.38524 3.6324,-3.20144 1.26211,-1.84699 1.47759,-3.60163 -2.1856,-0.33861 -3.38614,-1.8162 -1.20054,-1.47759 -1.20054,-3.17066 0,-2.12404 1.53916,-3.69397 1.56993,-1.60073 3.87867,-1.60073 2.67813,0 4.12493,1.93934 1.47759,1.90855 1.47759,4.30963 0,2.21639 -1.16976,4.64825 -1.16975,2.43187 -3.75553,4.43277 -2.555,1.97012 -6.61837,2.83205 z m 46.5285,-17.73107 h 19.11631 v 0.89271 q -3.66319,0.24626 -7.1109,2.43186 -3.41692,2.1856 -6.12584,5.01765 l -8.1883,8.43457 18.71613,22.7795 q 3.87867,4.67903 7.23403,4.89451 v 0.89271 h -21.05565 v -0.89271 q 1.10819,-0.12313 1.87777,-0.46174 0.76958,-0.3694 0.76958,-1.23133 0,-0.86193 -1.26211,-2.40108 l -14.0371,-17.26932 h -0.18469 v 15.51468 q 0,3.17066 1.32367,4.52512 1.35446,1.32367 4.27885,1.32367 v 0.89271 H 229.27 v -0.89271 q 3.57084,0 4.58668,-1.60072 1.01585,-1.60072 1.01585,-4.24807 V 173.089 q 0,-3.07831 -1.20054,-4.49433 -1.16976,-1.44681 -4.40199,-1.44681 v -0.83114 h 21.30191 v 0.89271 q -3.54006,0 -4.58668,1.6315 -1.01584,1.60072 -1.01584,4.24807 v 14.80667 l 13.42143,-14.12944 q 2.0009,-2.33952 2.0009,-3.84789 0,-2.70891 -5.17156,-2.70891 z m 57.6412,-0.43097 15.23764,39.21768 q 1.23132,3.01675 2.89361,4.15572 1.66229,1.10819 4.09415,1.50837 v 0.89271 h -21.4866 v -0.89271 q 4.40198,-0.24626 4.40198,-2.77048 0,-0.40018 -0.15391,-1.10819 -0.12314,-0.73879 -0.3694,-1.53915 -0.21548,-0.83115 -0.27705,-1.01585 l -3.78632,-9.63511 h -13.54457 l -3.23222,9.26572 q -0.61567,1.66228 -0.61567,3.01674 0,2.09325 1.23133,2.83205 1.23132,0.70801 2.92439,0.95427 v 0.89271 h -13.60613 v -0.89271 q 2.12403,-0.21548 3.97102,-1.97012 1.84699,-1.78542 3.57084,-6.52601 l 12.86734,-36.38564 z M 300.91752,191.682 h 11.2974 l -5.84879,-15.26842 z m 74.14095,-25.36528 0.70801,8.03439 h -0.89271 q -0.67723,-2.0009 -1.32367,-3.04753 -0.61567,-1.04662 -2.09326,-1.75464 -1.47758,-0.70801 -4.15572,-0.70801 h -8.86553 v 18.56222 h 7.72656 q 2.43187,0 4.43277,-1.23133 2.03168,-1.26211 2.1856,-4.52512 h 0.95427 v 13.11361 h -0.95427 q -0.15392,-2.03169 -1.53916,-3.44771 -1.38524,-1.41602 -4.30963,-1.41602 h -8.49614 v 15.02215 q 0,2.58578 1.20054,4.21729 1.20054,1.6315 4.34042,1.6315 h 0.30783 v 0.89271 h -21.48661 v -0.89271 q 3.47849,0 4.49434,-1.56994 1.04662,-1.56993 1.04662,-4.27885 v -31.8913 q 0,-2.40108 -0.92349,-4.09415 -0.89271,-1.72385 -4.30964,-1.72385 h -0.30783 v -0.89271 z m 42.12651,0 0.3694,10.15842 h -0.89271 q -0.61567,-2.55499 -1.38524,-4.21728 -0.7388,-1.66229 -2.12404,-2.52422 -1.38524,-0.89271 -3.78632,-0.89271 h -9.14258 v 19.05474 h 7.29559 q 3.26301,0 4.7406,-1.4468 1.50837,-1.44681 1.75464,-4.27885 h 0.89271 v 13.2983 h -0.89271 q -0.46175,-3.01675 -2.24717,-4.03259 -1.78542,-1.01584 -4.24807,-1.01584 h -7.29559 v 13.05204 q 0,5.66409 5.84879,5.66409 h 2.77048 q 2.80126,0 4.5559,-0.7388 1.78542,-0.73879 2.92439,-2.52421 1.16976,-1.8162 2.09325,-5.11 h 0.89271 l -0.67723,10.89722 h -34.16924 v -0.89271 q 3.57084,0 4.61746,-1.60072 1.04663,-1.6315 1.04663,-4.24807 v -31.76816 q 0,-2.49343 -0.95428,-4.21729 -0.95427,-1.72385 -4.40198,-1.72385 h -0.30783 v -0.89271 z m 42.92688,0 0.3694,10.15842 h -0.89271 q -0.61567,-2.55499 -1.38524,-4.21728 -0.7388,-1.66229 -2.12404,-2.52422 -1.38524,-0.89271 -3.78632,-0.89271 h -9.14258 v 19.05474 h 7.29559 q 3.26301,0 4.7406,-1.4468 1.50837,-1.44681 1.75464,-4.27885 h 0.89271 v 13.2983 h -0.89271 q -0.46175,-3.01675 -2.24717,-4.03259 -1.78542,-1.01584 -4.24807,-1.01584 h -7.29559 v 13.05204 q 0,5.66409 5.84879,5.66409 h 2.77048 q 2.80126,0 4.5559,-0.7388 1.78542,-0.73879 2.92439,-2.52421 1.16976,-1.8162 2.09325,-5.11 h 0.89271 l -0.67723,10.89722 h -34.16924 v -0.89271 q 3.57084,0 4.61746,-1.60072 1.04663,-1.6315 1.04663,-4.24807 v -31.76816 q 0,-2.49343 -0.95428,-4.21729 -0.95427,-1.72385 -4.40198,-1.72385 h -0.30783 v -0.89271 z m 44.74308,45.34351 H 470.3163 v -0.89271 q 3.54005,0 4.5559,-1.56994 1.04662,-1.60072 1.04662,-4.27885 V 173.089 q 0,-2.95518 -1.29289,-4.40198 -1.26211,-1.47759 -4.30963,-1.47759 v -0.89271 h 21.42504 v 0.89271 q -3.54006,0 -4.64825,1.60072 -1.07741,1.56994 -1.07741,4.27885 v 30.32136 q 0,2.80126 1.07741,4.27885 1.07741,1.44681 4.21729,1.44681 h 3.13987 q 3.20144,0 6.03349,-1.63151 2.83205,-1.6315 5.04843,-7.57264 h 0.89271 z"
           id="text1"
           transform="scale(0.87386646,1.1443396)"
           aria-label="D'KAFEEL" />
        <path
           style="font-size:23.1178px;line-height:0px;font-family:'Sans Serif Collection';-inkscape-font-specification:'Sans Serif Collection';letter-spacing:4.33457px;fill:#e5e1d7;stroke:#000000;stroke-width:0.989475;paint-order:markers stroke fill"
           d="m 176.10841,130.35799 q 1.22893,1.28128 1.74312,2.85668 0.49757,1.55813 0.0821,3.27308 -0.41599,1.67975 -1.94322,3.37897 -2.13812,2.37889 -4.45919,2.38433 -2.32161,-0.0298 -4.29791,-2.09014 l -7.63947,-7.96449 1.44685,-1.60978 7.6893,8.01643 q 1.44486,1.50633 2.98152,1.51463 1.55274,-0.01 3.0639,-1.69092 1.55937,-1.73498 1.40367,-3.38712 -0.15625,-1.68733 -1.50146,-3.08978 l -7.67269,-7.9991 1.43078,-1.5919 z m 21.05149,-10.44913 -1.92611,1.59026 -15.34643,-5.93004 -0.0734,0.0606 q 0.52888,0.66118 1.31516,1.64308 0.78627,0.9819 1.55972,2.06851 l 5.61094,7.88284 -1.52254,1.25707 -10.04064,-14.10614 1.90777,-1.57512 15.29996,5.90567 0.0734,-0.0605 q -0.24333,-0.30097 -0.73003,-0.90288 -0.46833,-0.61706 -1.0394,-1.33752 -0.55272,-0.7356 -1.00272,-1.36781 l -5.6672,-7.96185 1.54088,-1.27222 z m 16.43186,-10.64973 -4.24584,-3.7336 -5.69287,3.46974 0.80598,5.83016 -1.83056,1.11571 -2.54988,-18.954644 1.6294,-0.993109 13.75456,12.125513 z m -9.76791,-8.83462 q -0.15156,-0.13636 -0.53126,-0.505724 -0.3799,-0.369119 -0.77112,-0.759978 -0.38254,-0.424722 -0.59961,-0.635658 0.2121,0.757437 0.37256,1.51774 0.14909,0.73863 0.22192,1.18051 l 0.82952,5.67278 4.54625,-2.77088 z m 26.18287,-16.015868 q -2.50693,0.951674 -3.35404,3.305667 -0.84712,2.353986 0.1825,5.500051 1.02194,3.122582 2.95103,4.44907 1.94321,1.294739 4.62454,0.276859 1.02457,-0.388948 1.87867,-0.924342 0.85411,-0.535388 1.63387,-1.148143 l 0.59934,1.83129 q -0.75672,0.683185 -1.64032,1.203381 -0.86178,0.511906 -2.14794,1.000166 -2.37613,0.902019 -4.31326,0.449609 -1.93712,-0.452405 -3.38145,-2.094896 -1.42252,-1.650759 -2.2831,-4.280307 -0.82984,-2.535628 -0.60973,-4.783578 0.23423,-2.279692 1.55932,-3.996896 1.31743,-1.740664 3.71536,-2.650971 2.46332,-0.935124 4.61718,-0.644184 l -0.2008,2.082251 q -0.83464,-0.07908 -1.82062,-0.02153 -0.96418,0.04928 -2.01055,0.446499 z m 17.2362,-6.951991 q 3.00275,-0.709412 4.67768,0.194643 1.69257,0.874407 2.19774,3.354603 0.2823,1.385989 -0.004,2.422 -0.28591,1.036012 -0.91705,1.771294 -0.61353,0.705621 -1.3619,1.213754 l 6.00993,6.735552 -2.37059,0.560068 -5.36685,-6.250335 -3.20594,0.757431 1.46102,7.173114 -2.03194,0.480059 -3.53616,-17.361376 z m 0.27342,1.923304 -2.30286,0.544058 1.31244,6.443649 2.41574,-0.570733 q 1.96421,-0.464057 2.6989,-1.504155 0.72975,-1.064396 0.39793,-2.693556 -0.34669,-1.702086 -1.43855,-2.183216 -1.09681,-0.505441 -3.0836,-0.03605 z m 26.3739,11.756351 -9.17547,1.001241 -1.66359,-17.683656 9.17547,-1.001241 0.18407,1.956591 -7.10582,0.775403 0.51958,5.523047 6.69188,-0.730234 0.18174,1.931833 -6.69189,0.730227 0.59415,6.315592 7.10581,-0.775394 z m 18.31625,-0.242841 -1.92872,-5.525865 -6.5408,-0.08128 -2.02348,5.47676 -2.10323,-0.02613 6.63955,-17.767557 1.8721,0.02326 6.23404,17.927525 z m -4.32282,-12.924677 q -0.0672,-0.199966 -0.22338,-0.724746 -0.15619,-0.524747 -0.31211,-1.074383 -0.13255,-0.57424 -0.22179,-0.874099 -0.17006,0.769646 -0.38607,1.513831 -0.21574,0.719286 -0.35895,1.140725 l -1.9297,5.353449 5.22339,0.06491 z m 21.50356,-1.386662 q -2.6366,-0.363425 -4.37572,1.329304 -1.73911,1.692737 -2.13231,5.001521 -0.39027,3.284094 0.77939,5.40288 1.19553,2.097251 4.01554,2.485966 1.07756,0.148535 2.06396,0.08373 0.98641,-0.06481 1.93869,-0.234701 l -0.22888,1.926013 q -0.96109,0.243967 -1.96748,0.28092 -0.98347,0.04012 -2.33616,-0.146343 -2.49903,-0.344477 -4.04064,-1.686328 -1.54163,-1.341857 -2.14637,-3.508265 -0.58182,-2.163235 -0.25318,-4.928792 0.31692,-2.666778 1.45168,-4.568305 1.16062,-1.923053 3.06097,-2.815567 1.90329,-0.917198 4.42524,-0.569563 2.59074,0.357112 4.39336,1.659657 l -1.04838,1.762857 q -0.71257,-0.474686 -1.61736,-0.900566 -0.88186,-0.422717 -1.98235,-0.574415 z m 14.32367,19.263076 -5.81766,-1.411172 0.26409,-1.26285 1.99062,-0.002 2.89987,-13.867014 -1.79255,-0.945162 0.26409,-1.262842 5.81766,1.411172 -0.26409,1.262842 -1.99569,0.02626 -2.89988,13.867023 1.79763,0.920879 z m 23.58962,-1.514465 q -0.81825,2.618926 -2.26256,4.27552 -1.41503,1.640943 -3.35332,2.146693 -1.9383,0.50576 -4.30424,-0.35169 -2.43167,-0.881258 -3.71369,-2.554086 -1.2601,-1.664887 -1.43691,-3.908988 -0.1768,-2.24411 0.64145,-4.863028 0.81088,-2.595322 2.204,-4.244204 1.39313,-1.648874 3.33141,-2.154628 1.96021,-0.497821 4.41378,0.391385 2.34403,0.849499 3.60414,2.514386 1.26748,1.64129 1.46619,3.893333 0.228,2.236389 -0.59025,4.855307 z m -12.35549,-4.477746 q -0.99517,3.185167 -0.32146,5.478033 0.68108,2.269263 3.33182,3.229898 2.67265,0.968592 4.46704,-0.403537 1.80178,-1.395726 2.79694,-4.580893 0.99517,-3.185174 0.32863,-5.422907 -0.65917,-2.261329 -3.3099,-3.22198 -2.65075,-0.960651 -4.48895,0.395603 -1.80894,1.340593 -2.80411,4.525766 z m 12.63639,-10.549334 q -0.39557,0.329419 -1.15703,0.815167 -0.75407,0.462137 -1.60315,0.916126 -0.8198,0.438326 -1.47824,0.672475 l -1.27062,-0.460478 0.0885,-0.283128 q 0.46866,-0.329198 1.03274,-0.807668 0.58599,-0.470529 1.15744,-0.972595 0.57882,-0.525662 0.98197,-0.957391 l 2.32213,0.841556 z m 16.20462,33.012283 -2.18017,-1.14842 -1.9096,-17.438957 -0.083,-0.04374 q -0.31391,0.804567 -0.77969,2.000229 -0.46578,1.195655 -1.02433,2.425587 l -4.05194,8.922611 -1.72337,-0.9078 7.25085,-15.966774 2.1594,1.137476 1.90914,17.383298 0.083,0.0438 q 0.14173,-0.36874 0.42517,-1.10621 0.3042,-0.72653 0.64857,-1.59818 0.36514,-0.86071 0.69011,-1.57631 l 4.09257,-9.012055 1.74413,0.918729 z m 29.54487,9.94363 q -2.44109,3.65926 -5.54022,4.0812 -3.06688,0.41626 -6.37062,-2.14018 l -3.73549,-2.89053 9.62949,-14.43481 4.12968,3.19555 q 2.0273,1.56873 2.97077,3.5249 0.94346,1.95616 0.69867,4.15767 -0.23131,2.18127 -1.78228,4.5062 z m -1.82373,-1.31924 q 1.92859,-2.891 1.48595,-5.25661 -0.41038,-2.3713 -2.83188,-4.24505 l -2.19625,-1.69945 -7.55253,11.32142 1.82081,1.40894 q 5.44368,4.21232 9.2739,-1.52925 z m 9.88676,20.86675 -6.84801,-6.65292 11.05399,-13.19802 6.84802,6.65293 -1.22303,1.46031 -5.30336,-5.15226 -3.45243,4.12206 4.99442,4.85213 -1.20757,1.44181 -4.99442,-4.85213 -3.94785,4.71358 5.30335,5.15227 z"
           id="text3"
           aria-label="UNA CREACIÓN DE" />
        <path
           style="font-size:23.1178px;line-height:0px;font-family:'Sans Serif Collection';-inkscape-font-specification:'Sans Serif Collection';letter-spacing:2.8px;fill:#e5e1d7;stroke:#000000;stroke-width:0.945787;paint-order:markers stroke fill"
           d="m 145.17247,293.10122 q -2.00945,0.80595 -3.70623,-0.22838 -1.69679,-1.03434 -2.67302,-3.55065 -0.50063,-1.29041 -0.73579,-2.46362 -0.23518,-1.17321 -0.18043,-2.04018 l 1.81908,-0.72962 q -0.0381,0.91 0.12919,2.16016 0.17559,1.27165 0.65119,2.49755 0.66751,1.72055 1.65697,2.31783 0.99782,0.6188 2.11888,0.16915 0.74033,-0.29694 1.12281,-0.82315 0.3825,-0.52622 0.49682,-1.49165 0.14381,-0.95241 0.0879,-2.54548 -0.0613,-2.2371 0.56188,-3.65515 0.63148,-1.39654 2.38711,-2.1007 1.20566,-0.48357 2.29372,-0.19923 1.1092,0.27587 2.00009,1.18608 0.89922,0.93171 1.45826,2.37268 0.49228,1.26891 0.66846,2.41607 0.17617,1.14717 0.1292,2.16015 l -1.86234,0.051 q 0.0297,-0.9315 -0.10476,-1.97113 -0.1261,-1.01812 -0.51827,-2.02894 -0.55904,-1.44096 -1.45613,-1.92618 -0.87595,-0.49368 -1.8701,-0.0949 -0.76147,0.30541 -1.14397,0.83163 -0.38249,0.52621 -0.50069,1.41865 -0.1182,0.89242 -0.0996,2.32646 0.0391,1.55008 -0.17316,2.70393 -0.18283,1.16689 -0.78189,1.95394 -0.59072,0.80856 -1.77524,1.28366 z m 2.73349,15.3467 -4.21055,-8.17117 14.38086,-7.66106 4.21055,8.17117 -1.59116,0.84765 -3.2608,-6.32805 -4.4915,2.39275 3.07085,5.95942 -1.57102,0.83692 -3.07085,-5.95942 -5.13602,2.73609 3.26081,6.32805 z m 10.5283,16.31689 -1.35893,-1.99598 6.14268,-15.06504 -0.0517,-0.076 q -0.62847,0.49859 -1.56182,1.2399 -0.93336,0.74131 -1.96163,1.46507 l -7.45959,5.25056 -1.0742,-1.57779 13.34875,-9.39572 1.34599,1.97698 -6.11821,15.0197 0.0517,0.076 q 0.28619,-0.22956 0.85857,-0.68867 0.58532,-0.44011 1.26987,-0.97818 0.69749,-0.51906 1.29576,-0.94016 l 7.53439,-5.3032 1.08714,1.59679 z m 13.91356,9.70704 q -1.61452,1.45917 -3.55759,1.08091 -1.94307,-0.37826 -3.71051,-2.40003 -0.90639,-1.03679 -1.52386,-2.05632 -0.61747,-1.01952 -0.85916,-1.8528 l 1.46156,-1.32094 q 0.27192,0.86784 0.85161,1.98336 0.59481,1.13281 1.45587,2.11777 1.20851,1.38241 2.33961,1.59745 1.14621,0.23233 2.04694,-0.58174 0.59483,-0.53759 0.7761,-1.16542 0.18129,-0.62784 -0.0378,-1.5744 -0.18693,-0.94464 -0.77795,-2.42111 -0.81385,-2.07936 -0.7081,-3.62879 0.12088,-1.53216 1.53145,-2.80702 0.96872,-0.8755 2.0866,-0.98877 1.13488,-0.12863 2.27919,0.41473 1.15942,0.56065 2.17155,1.71842 0.89128,1.01953 1.44454,2.0352 0.55327,1.01569 0.85161,1.98336 l -1.73159,0.69887 q -0.28701,-0.88513 -0.76475,-1.8144 -0.46263,-0.912 -1.17263,-1.72417 -1.01213,-1.15776 -2.01859,-1.29985 -0.98947,-0.15745 -1.78824,0.56446 -0.61182,0.55295 -0.7931,1.18079 -0.18128,0.62783 0.01,1.50719 0.19071,0.87936 0.69299,2.21951 0.56081,1.44192 0.75152,2.59968 0.22281,1.15968 -0.0737,2.10815 -0.28136,0.96575 -1.23309,1.82591 z m 8.57074,14.2268 1.92191,-5.12262 -4.77129,-4.39023 -4.80492,2.46988 -1.53422,-1.41169 15.64325,-7.96301 1.36564,1.25657 -6.25242,16.60382 z m 4.63405,-11.85671 q 0.0715,-0.18368 0.27387,-0.65227 0.20238,-0.46858 0.42002,-0.95431 0.24975,-0.48735 0.3654,-0.75511 -0.59099,0.42282 -1.20045,0.79747 -0.59419,0.35752 -0.95472,0.55586 l -4.66119,2.44622 3.81029,3.50597 z m 14.7597,8.09025 q -2.12469,-1.54984 -4.36469,-0.99282 -2.23999,0.557 -4.01609,3.07428 -1.76285,2.49847 -1.66969,4.78583 0.12489,2.28205 2.39739,3.93971 0.86836,0.63342 1.75037,1.04915 0.88201,0.41575 1.78009,0.72939 l -1.03384,1.46528 q -0.93785,-0.25729 -1.82509,-0.70529 -0.86876,-0.43454 -1.95881,-1.22967 -2.01384,-1.46898 -2.76612,-3.29813 -0.75226,-1.82917 -0.33574,-3.88701 0.435,-2.04438 1.91951,-4.14835 1.43149,-2.02885 3.23891,-3.04366 1.83915,-1.02013 3.87148,-0.84655 2.04558,0.1548 4.0779,1.63726 2.08775,1.52288 3.08301,3.44393 l -1.67247,0.94254 q -0.41087,-0.72652 -1.00932,-1.5045 -0.57997,-0.76451 -1.4668,-1.41139 z m 3.9195,20.09734 -5.05648,-3.02441 0.59952,-1.03622 1.86534,0.60606 6.5831,-11.37862 -1.41571,-1.38324 0.59951,-1.03623 5.05648,3.0244 -0.59951,1.03622 -1.87688,-0.58613 -6.5831,11.37863 1.42724,1.3633 z m 21.41372,1.45537 q -1.05627,2.33076 -2.63084,3.70591 -1.54441,1.36382 -3.48968,1.6234 -1.94528,0.25959 -4.17563,-0.78537 -2.2923,-1.07399 -3.38277,-2.75588 -1.06981,-1.67222 -1.02344,-3.76335 0.0464,-2.09113 1.10264,-4.42189 1.04675,-2.30975 2.5705,-3.68325 1.52375,-1.37351 3.46904,-1.63309 1.96593,-0.2499 4.27888,0.83376 2.2097,1.03528 3.27951,2.7075 1.07933,1.65121 1.05361,3.75202 0.005,2.0895 -1.05182,4.42024 z m -11.64736,-5.457 q -1.28465,2.8347 -0.84976,5.02403 0.44439,2.16834 2.94321,3.33908 2.51946,1.18042 4.40866,0.10542 1.89873,-1.096 3.18338,-3.9307 1.28465,-2.8347 0.85138,-4.97237 -0.42375,-2.15866 -2.92257,-3.3294 -2.49881,-1.17074 -4.42932,-0.11509 -1.90033,1.04432 -3.18498,3.87903 z m 13.39064,-8.38899 q -0.41911,0.26185 -1.21135,0.62891 -0.78273,0.34604 -1.65758,0.67438 -0.84468,0.31703 -1.5116,0.46277 l -1.19778,-0.56118 0.11419,-0.25197 q 0.49057,-0.25383 1.08906,-0.63528 0.61913,-0.37178 1.22714,-0.77425 0.61752,-0.42344 1.05403,-0.77896 l 2.18904,1.0256 z m 13.09595,27.52684 -2.27848,-0.72527 -4.26084,-15.72244 -0.0868,-0.0276 q -0.19436,0.78604 -0.48252,1.95408 -0.28816,1.16805 -0.66179,2.38155 l -2.71056,8.80347 -1.80108,-0.57331 4.85047,-15.75356 2.25678,0.71836 4.25273,15.67141 0.0868,0.0276 q 0.087,-0.35992 0.26098,-1.07979 0.19569,-0.71295 0.41043,-1.56518 0.23646,-0.84534 0.45384,-1.55138 l 2.73774,-8.89171 1.82278,0.58022 z m 6.81001,-3.83486 0.3693,-1.76381 5.38206,1.16498 -0.36929,1.76381 z m 25.07872,0.94204 q -0.29245,2.549 -1.36937,4.35321 -1.05171,1.78393 -2.82162,2.64472 -1.76991,0.86078 -4.20911,0.57145 -2.50695,-0.29737 -4.05705,-1.55196 -1.52752,-1.2519 -2.1219,-3.25436 -0.59438,-2.00246 -0.30192,-4.55147 0.28982,-2.52604 1.31895,-4.31264 1.02911,-1.78661 2.79902,-2.64739 1.79251,-0.85811 4.32204,-0.55806 2.41661,0.28665 3.94413,1.53856 1.53015,1.22894 2.14711,3.23408 0.64218,1.98485 0.34972,4.53386 z m -12.73802,-1.51094 q -0.35569,3.10014 0.72615,5.04403 1.08448,1.92094 3.81728,2.24509 2.75539,0.32684 4.22304,-1.29136 1.47028,-1.64118 1.82597,-4.74133 0.3557,-3.10014 -0.70884,-4.99542 -1.06188,-1.91825 -3.79469,-2.24241 -2.7328,-0.32416 -4.24562,1.28869 -1.48759,1.59257 -1.84329,4.69271 z m 22.68039,-6.52967 q 3.02418,0.01 4.45303,1.19342 1.45165,1.16065 1.44432,3.51885 -0.004,1.31783 -0.48433,2.19484 -0.48023,0.877 -1.23224,1.40635 -0.7292,0.50629 -1.54871,0.80422 l 4.4337,7.4126 -2.38751,-0.008 -3.91252,-6.83293 -3.22882,-0.0104 -0.0211,6.82029 -2.04643,-0.007 0.0512,-16.50743 z m -0.1193,1.80297 -2.31929,-0.007 -0.019,6.1267 2.43298,0.008 q 1.97823,0.006 2.8902,-0.7768 0.91204,-0.80627 0.91685,-2.35528 0.005,-1.61838 -0.94789,-2.29191 -0.95285,-0.69666 -2.95382,-0.70308 z m 17.03383,13.94748 -5.84839,0.46803 -0.0928,-1.19852 1.87023,-0.5903 -1.01876,-13.16069 -1.9398,-0.30858 -0.0928,-1.19852 5.8484,-0.46803 0.0928,1.19852 -1.86844,0.61335 1.01874,13.16068 1.93804,0.28554 z m 11.39707,-10.3791 5.53847,-0.94781 1.32088,7.97968 q -1.22882,0.65575 -2.51781,1.08734 -1.28898,0.43158 -2.97071,0.71939 -2.48894,0.42593 -4.35914,-0.2856 -1.87397,-0.73432 -3.08036,-2.45035 -1.18772,-1.74267 -1.61419,-4.31897 -0.42268,-2.5535 0.25447,-4.59187 0.67714,-2.03836 2.34599,-3.37897 1.6875,-1.36726 4.31099,-1.81622 1.34537,-0.23024 2.5753,-0.18282 1.25236,0.0436 2.35929,0.32304 l -0.46802,1.9088 q -0.91623,-0.24177 -2.03781,-0.33117 -1.09916,-0.0932 -2.24274,0.10247 -2.87013,0.49117 -4.19398,2.52298 -1.30144,2.02797 -0.79573,5.08305 0.32079,1.93792 1.17529,3.33906 0.87315,1.3745 2.33574,1.99166 1.45881,0.59437 3.61142,0.22599 1.05388,-0.18035 1.77496,-0.42098 0.72109,-0.24063 1.30009,-0.50382 l -0.80008,-4.83341 -3.5204,0.60245 z m 22.17179,3.60731 -8.74621,2.452 -4.31541,-15.91366 8.74622,-2.45201 0.47747,1.76076 -6.77338,1.89892 1.34781,4.97023 6.37881,-1.7883 0.47144,1.73846 -6.37883,1.78832 1.54122,5.68345 6.77339,-1.89892 z m 18.01617,-6.72925 -2.22315,0.88515 -13.00455,-9.54591 -0.0847,0.0337 q 0.33253,0.73662 0.82717,1.83079 0.49465,1.09416 0.95065,2.27821 l 3.30807,8.58971 -1.75736,0.69969 -5.9197,-15.37106 2.20198,-0.87671 12.96679,9.51127 0.0847,-0.0337 q -0.15382,-0.33602 -0.46148,-1.00807 -0.28649,-0.68047 -0.64388,-1.48167 -0.33623,-0.80964 -0.60154,-1.49854 l -3.34123,-8.67581 1.77853,-0.70812 z m 7.97669,-9.84192 -0.84382,-1.58615 4.83998,-2.66194 0.84382,1.58617 z m 11.55802,-20.18477 q 2.61748,-1.84219 4.52582,-1.63878 1.90834,0.2034 3.20247,2.1044 0.76355,1.12158 0.9317,2.46538 0.1739,1.31162 -0.58984,2.74893 -0.74505,1.42414 -2.74555,2.8321 l -1.5331,1.07899 3.5977,5.28476 -1.68267,1.18426 -9.24014,-13.57309 z m 0.84692,1.56903 -1.70137,1.19742 3.64946,5.3608 1.34614,-0.94741 q 1.90702,-1.34216 2.41478,-2.62741 0.50774,-1.28525 -0.51462,-2.78703 -0.89296,-1.3117 -2.15561,-1.37905 -1.26264,-0.0674 -3.03878,1.18268 z m 25.09753,-1.35587 -4.74136,-2.61131 -4.90816,4.23137 1.77567,5.16807 -1.57824,1.36061 -5.70482,-16.8153 1.40481,-1.21109 15.36502,8.48714 z m -10.94982,-6.23119 q -0.16967,-0.0962 -0.59988,-0.36188 -0.43021,-0.26566 -0.87512,-0.54895 -0.44228,-0.31587 -0.68812,-0.46768 0.33446,0.65133 0.61952,1.31492 0.27036,0.64597 0.41629,1.03546 l 1.7715,5.02008 3.91958,-3.3791 z m 19.38189,-8.54209 q 1.55231,1.52738 1.32728,3.52588 -0.22504,1.9985 -2.07509,3.94236 -0.94875,0.99685 -1.90224,1.69947 -0.9535,0.70263 -1.75256,1.01027 l -1.40525,-1.38268 q 0.8307,-0.34087 1.88117,-1.01242 1.0663,-0.68816 1.96761,-1.63516 1.26498,-1.32914 1.39094,-2.49211 0.14177,-1.17959 -0.72425,-2.03171 -0.57191,-0.56272 -1.20125,-0.69937 -0.62935,-0.13665 -1.54121,0.15653 -0.91239,0.26047 -2.31603,0.97061 -1.97814,0.98132 -3.50565,0.99046 -1.5117,-0.007 -2.86793,-1.34192 -0.93138,-0.91643 -1.12642,-2.04135 -0.21138,-1.141 0.23557,-2.34203 0.46277,-1.21765 1.5222,-2.3308 0.93293,-0.98023 1.88748,-1.61748 0.95455,-0.63723 1.88117,-1.0124 l 0.81543,1.70317 q -0.84649,0.35748 -1.72198,0.91166 -0.85968,0.53755 -1.60286,1.31842 -1.05944,1.11314 -1.12319,2.14428 -0.0801,1.01506 0.68788,1.77071 0.58824,0.5788 1.21758,0.71545 0.62935,0.13665 1.47744,-0.12276 0.84808,-0.2594 2.12469,-0.86931 1.372,-0.67691 2.49312,-0.95722 1.12059,-0.31301 2.07304,-0.0836 0.96827,0.21275 1.88331,1.11309 z m 9.94754,-5.17674 -3.73487,4.59987 -0.91182,-0.7654 0.88285,-1.77729 -10.01236,-8.40461 -1.5667,1.20325 -0.91182,-0.76539 3.73488,-4.59987 0.91181,0.76539 -0.86531,1.79201 10.01236,8.40462 1.54917,-1.21797 z m 4.8556,-21.26055 q 2.09207,1.43563 3.17304,3.23733 1.07484,1.76961 1.01325,3.76351 -0.0616,1.99389 -1.43537,4.06356 -1.41195,2.12716 -3.22023,2.95033 -1.79555,0.804 -3.81782,0.4204 -2.02227,-0.38359 -4.11434,-1.81922 -2.07322,-1.4227 -3.16079,-3.17315 -1.08756,-1.75044 -1.02596,-3.74434 0.0743,-2.01305 1.49897,-4.15938 1.36106,-2.0505 3.15662,-2.85451 1.77671,-0.81693 3.8117,-0.4525 2.02886,0.33234 4.12093,1.76797 z m -7.1742,10.80829 q 2.5444,1.74604 4.73956,1.66253 2.17631,-0.0964 3.71545,-2.41524 1.55187,-2.33796 0.81294,-4.40701 -0.75776,-2.08199 -3.30218,-3.82803 -2.5444,-1.74604 -4.68914,-1.65582 -2.16359,0.0773 -3.70273,2.39608 -1.53914,2.31879 -0.82566,4.42617 0.70735,2.07529 3.25176,3.82132 z m -5.9843,-14.78943 q 0.18661,0.46277 0.41518,1.31693 0.20972,0.84123 0.38742,1.77206 0.17155,0.89872 0.20553,1.59146 l -0.73777,1.11148 -0.22617,-0.1552 q -0.1673,-0.53319 -0.44109,-1.19524 -0.26108,-0.68123 -0.55371,-1.35622 -0.31148,-0.68792 -0.58621,-1.18326 l 1.34835,-2.03134 z m 28.83781,-8.69909 -1.0708,2.16972 -15.9473,1.74472 -0.0408,0.0827 q 0.73171,0.3216 1.8191,0.7988 1.0874,0.47721 2.20517,1.04752 l 8.10893,4.13731 -0.84645,1.71512 -14.5107,-7.40362 1.0606,-2.14905 15.89644,-1.7448 0.0408,-0.0827 q -0.33537,-0.14524 -1.00611,-0.43573 -0.66053,-0.31115 -1.4532,-0.66385 -0.78248,-0.37337 -1.43282,-0.70518 l -8.19022,-4.17879 0.85664,-1.73578 z"
           id="text3-1"
           aria-label="SENSACIÓN-ORIGEN - PASIÓN" />
        <path
           id="path1-2"
           style="fill:#b28e56;stroke-width:0.0699091"
           d="m 286.51106,122.66893 -0.4284,0.0206 -0.4285,0.0206 -0.1473,1.62566 c -0.1735,1.9132 -0.044,1.69374 -1.0429,1.77353 -9.147,0.73094 -16.4238,7.988 -17.3058,17.25895 -0.046,0.48062 -0.088,0.87965 -0.094,0.88669 -0.01,0.007 -0.7497,0.0857 -1.6526,0.17478 l -1.6418,0.16194 -0.02,0.42641 -0.021,0.42629 0.7897,0.0797 c 0.4342,0.0438 1.1867,0.11703 1.6722,0.16262 l 0.8827,0.0829 0.047,0.59955 c 0.7381,9.45627 8.1695,16.89914 17.5673,17.59429 l 0.6439,0.0477 0.037,0.28728 c 0.045,0.35306 0.2497,2.7573 0.249,2.92636 0,0.104 0.068,0.12234 0.454,0.12234 0.25,0 0.4544,-0.0184 0.4544,-0.0408 0,-0.30688 0.3019,-3.22107 0.3368,-3.25105 0.026,-0.0226 0.4926,-0.0791 1.0363,-0.12562 9.0119,-0.77022 16.5432,-8.43576 17.1247,-17.43016 l 0.047,-0.73295 1.5807,-0.1517 c 0.8695,-0.0834 1.6202,-0.1511 1.6683,-0.15047 0.06,8.1e-4 0.087,-0.12907 0.087,-0.42041 0,-0.27435 -0.031,-0.4324 -0.087,-0.45236 -0.076,-0.0268 -2.9803,-0.31446 -3.1746,-0.31446 -0.044,0 -0.094,-0.2917 -0.1227,-0.71656 -0.6444,-9.40332 -7.9266,-16.54825 -17.8393,-17.50281 l -0.3562,-0.0343 -0.1183,-1.34206 c -0.065,-0.73814 -0.136,-1.4929 -0.1577,-1.67727 z m 0.7459,4.96437 c 0.1281,-0.002 0.309,0.0372 0.5573,0.0631 8.4109,0.87674 15.6008,8.28819 15.6274,16.10886 0,0.34015 -0.017,0.40064 -0.121,0.39296 -0.067,-0.005 -0.6571,-0.0645 -1.3108,-0.13203 -1.0142,-0.10485 -4.2516,-0.37461 -6.5294,-0.54412 l -0.657,-0.0489 -0.1882,-0.69909 c -0.2633,-0.97856 -0.5679,-1.66607 -1.0871,-2.45365 -0.2459,-0.37295 -0.4264,-0.71272 -0.401,-0.75507 0.025,-0.0423 0.317,-0.42306 0.6481,-0.84601 1.1904,-1.52052 2.4471,-3.18947 2.4471,-3.24982 0,-0.12276 -0.6216,-0.57318 -0.7136,-0.51708 -0.1503,0.0917 -2.8457,2.1316 -3.467,2.62391 l -0.5803,0.45974 -0.5732,-0.38587 c -0.7851,-0.52845 -1.7335,-0.96727 -2.472,-1.14394 -0.8273,-0.19793 -0.8248,-0.19629 -0.8451,-0.55545 -0.04,-0.71143 -0.2487,-3.41398 -0.4435,-5.75166 -0.1824,-2.1888 -0.2748,-2.56052 0.1093,-2.56588 z m -2.2328,0.005 c 0.2157,0.006 0.2241,0.0761 0.2049,0.22761 -0.088,0.69322 -0.6615,7.8515 -0.6615,8.25324 0,0.14824 -0.066,0.1793 -0.7463,0.35159 -0.8759,0.2218 -1.7925,0.64031 -2.5773,1.17672 l -0.5621,0.38422 -0.5214,-0.41222 c -1.117,-0.88304 -3.5597,-2.71021 -3.6233,-2.71021 -0.037,0 -0.2015,0.12176 -0.3658,0.27049 l -0.2988,0.27035 1.0257,1.35504 c 0.5642,0.74523 1.2903,1.68498 1.6136,2.0884 l 0.5878,0.7335 -0.1984,0.25041 c -0.5793,0.73144 -1.2,2.06496 -1.433,3.07901 l -0.1222,0.53183 -0.7761,0.0467 c -0.4269,0.0256 -1.94,0.14078 -3.3626,0.25602 -1.4227,0.11524 -3.0192,0.24964 -3.5479,0.29861 l -0.9613,0.089 v -0.35269 c 0.03,-7.68212 6.9687,-14.99377 15.2598,-16.07923 0.4677,-0.0612 0.7681,-0.0987 0.9591,-0.10705 0.04,-0.002 0.075,-0.002 0.1057,-0.001 z m 1.0358,10.10542 c 3.1326,-0.009 6.1823,2.01467 7.0776,5.53524 1.043,4.10104 -1.7965,8.36342 -5.9741,8.96775 -6.8032,0.98418 -11.0839,-7.17786 -6.3845,-12.17346 1.4919,-1.58599 3.4014,-2.32384 5.281,-2.32953 z m 54.5542,0.67151 c -0.031,-0.0135 -0.052,1.2921 -0.046,2.90122 l 0.011,2.92567 -14.3037,0.0176 -14.3037,0.0176 v 0.76886 0.76887 h 14.2964 14.2964 v 2.90709 c 0,1.86242 0.024,2.89869 0.068,2.88376 0.1717,-0.0586 9.7835,-6.5311 9.7692,-6.57856 -0.022,-0.0743 -9.5432,-6.50594 -9.7881,-6.61215 z m -109.09014,0.001 c -0.0696,0.0309 -6.829,4.55944 -8.47594,5.67847 -1.45284,0.98716 -1.40199,0.93464 -1.09847,1.13166 0.55324,0.35911 8.99192,6.01944 9.23537,6.19473 0.14996,0.10797 0.29939,0.19635 0.33207,0.19635 0.0327,0 0.0594,-1.30555 0.0594,-2.90123 v -2.90122 h 14.28891 c 11.3694,0 14.2948,-0.0179 14.3174,-0.0874 0.016,-0.0481 0.016,-0.39411 7e-4,-0.769 l -0.028,-0.68162 h -14.2896 -14.28971 v -2.94205 c 0,-1.6181 -0.0236,-2.93152 -0.0524,-2.9187 z m 55.40674,2.23477 c -3.3536,0.0453 -6.141,4.65852 -4.3134,7.39534 0.3503,0.52466 0.3763,0.51932 0.5926,-0.12302 0.4691,-1.39323 1.3466,-2.5095 2.5205,-3.20681 1.3816,-0.82066 2.6821,-2.61373 2.6821,-3.69781 0,-0.10445 -0.709,-0.32395 -1.1557,-0.35774 -0.1092,-0.008 -0.2179,-0.0114 -0.3261,-0.01 z m 55.2943,0.70141 c 0.07,0.0311 3.3748,2.245 4.5492,3.04746 l 0.9315,0.63656 -0.8616,0.57634 c -0.4738,0.31704 -1.7187,1.1527 -2.7665,1.85696 l -1.905,1.28048 v -3.71051 c 0,-2.04078 0.024,-3.70011 0.052,-3.68729 z m -112.28328,0.008 c 0.0121,0.0121 0.0439,1.67996 0.0706,3.70627 0.029,2.2016 0.0228,3.68299 -0.0152,3.68115 -0.035,-0.002 -0.94448,-0.60168 -2.02108,-1.33332 -1.0766,-0.73164 -2.29481,-1.55612 -2.7072,-1.83211 -0.4124,-0.27599 -0.75058,-0.52336 -0.75153,-0.54972 -0.003,-0.0714 5.38075,-3.71589 5.42438,-3.67227 z m 59.36058,0.42792 c -0.1398,0.006 -0.2729,0.18474 -0.3987,0.53647 -0.4588,1.28258 -1.1608,2.11728 -2.5521,3.03422 -1.2305,0.81101 -1.9103,1.65557 -2.3505,2.92021 -0.2906,0.83467 -0.3093,0.79476 0.4966,1.05573 2.8093,0.90981 6.4392,-3.38993 5.4597,-6.46714 -0.2318,-0.72831 -0.4506,-1.08833 -0.655,-1.07949 z m 14.0381,4.10852 c 0.2041,0.0185 0.1567,0.10496 0.1367,0.28483 -0.1437,1.29138 -0.2079,1.72946 -0.3609,2.46429 -1.495,7.17935 -7.6239,12.82004 -14.8435,13.66123 -1.4242,0.16593 -1.3283,0.16508 -1.3283,0.0117 0,-0.0764 0.077,-1.06046 0.1703,-2.18698 0.094,-1.12653 0.2425,-3.01946 0.3308,-4.20643 0.094,-1.26593 0.19,-2.16622 0.2317,-2.17783 0.039,-0.0109 0.3071,-0.0737 0.5955,-0.13968 0.9563,-0.21871 2.1297,-0.77826 2.8829,-1.37483 l 0.2717,-0.21533 0.2675,0.20167 c 1.8452,1.39035 3.4407,2.61757 3.6567,2.81275 l 0.2685,0.2425 0.3111,-0.30531 c 0.1712,-0.16797 0.3112,-0.32871 0.3112,-0.35705 0,-0.0507 -0.7219,-1.00623 -2.2593,-2.99053 -0.43,-0.55491 -0.8047,-1.04655 -0.8328,-1.09247 -0.03,-0.0485 0.108,-0.32103 0.3284,-0.65034 0.6117,-0.91385 1.0716,-2.01817 1.2611,-3.02808 l 0.045,-0.23976 2.7387,-0.22803 c 1.5064,-0.1254 3.3837,-0.2886 4.1719,-0.36265 0.9856,-0.0926 1.4411,-0.14215 1.6452,-0.12371 z m -34.4955,0.009 c 0.1994,-0.0281 0.6507,0.0254 1.6584,0.1177 1.4386,0.13169 4.9472,0.42707 6.2393,0.52528 l 0.5993,0.0456 0.1564,0.64884 c 0.1945,0.80678 0.6301,1.7848 1.1508,2.58364 0.22,0.33744 0.3769,0.64812 0.3504,0.6939 -0.026,0.0456 -0.2588,0.35028 -0.5166,0.67711 -0.2577,0.32682 -0.9444,1.21918 -1.5261,1.98298 l -1.0576,1.38877 0.2859,0.34148 c 0.3473,0.41478 0.2549,0.42189 0.8551,-0.0655 0.2758,-0.22389 1.0172,-0.79802 1.6476,-1.27584 0.6303,-0.47782 1.3415,-1.01803 1.5803,-1.20046 l 0.434,-0.3318 0.587,0.39502 c 0.9183,0.61801 2.5096,1.28211 3.0723,1.28211 0.1918,0 0.1868,-0.0301 0.3425,2.066 0.1686,2.2688 0.4063,5.20344 0.4868,6.0085 0.031,0.3076 0.043,0.58287 0.027,0.61171 -0.016,0.0288 -0.082,0.047 -0.1472,0.0403 -0.065,-0.007 -0.2598,-0.0237 -0.4328,-0.0377 -8.3755,-0.67607 -15.9393,-8.3283 -15.9393,-16.12565 0,-0.2342 -0.053,-0.34385 0.1468,-0.37194 z" />
        <path
           id="path1-5"
           style="fill:#b28e56;stroke-width:0.416878"
           d="m 291.8536,278.85351 c -19.99852,0.27029 -36.61999,27.77947 -25.72188,44.09951 2.08918,3.12859 2.24385,3.09677 3.53371,-0.7336 2.79767,-8.30801 8.03015,-14.9645 15.03041,-19.12266 8.2386,-4.8937 15.99361,-15.58605 15.99361,-22.05057 0,-0.62288 -4.22814,-1.9318 -6.89153,-2.13324 -0.65142,-0.0492 -1.2992,-0.0682 -1.94432,-0.0594 z m 14.14208,6.78404 c -0.83375,0.036 -1.62724,1.10166 -2.37749,3.19905 -2.73581,7.64823 -6.92231,12.62563 -15.21851,18.09348 -7.3378,4.8362 -11.39169,9.87243 -14.01669,17.41362 -1.7325,4.97727 -1.84402,4.73927 2.96129,6.29552 16.75212,5.42533 38.3981,-20.21467 32.55722,-38.56448 -1.38245,-4.34304 -2.68724,-6.48988 -3.90582,-6.43719 z" />
      </g>
    </g>
  </g>
</svg>
