<?xml version="1.0" encoding="UTF-8" standalone="no"?>
<!-- Created with Inkscape (http://www.inkscape.org/) -->

<svg
   version="1.1"
   id="svg1"
   width="418.8891"
   height="418.8891"
   viewBox="0 0 418.8891 418.8891"
   sodipodi:docname="11. Favicon Cafe Mendez v2.svg"
   inkscape:version="1.4.4 (dcaf3e7, 2026-05-05)"
   inkscape:export-filename="11. Favicon Cafe Mendez v2 16x16.png"
   inkscape:export-xdpi="3.6668417"
   inkscape:export-ydpi="3.6668417"
   xmlns:inkscape="http://www.inkscape.org/namespaces/inkscape"
   xmlns:sodipodi="http://sodipodi.sourceforge.net/DTD/sodipodi-0.dtd"
   xmlns="http://www.w3.org/2000/svg"
   xmlns:svg="http://www.w3.org/2000/svg">
  <sodipodi:namedview
     id="namedview1"
     pagecolor="#ffffff"
     bordercolor="#000000"
     borderopacity="0.25"
     inkscape:showpageshadow="2"
     inkscape:pageopacity="0.0"
     inkscape:pagecheckerboard="0"
     inkscape:deskcolor="#d1d1d1"
     inkscape:zoom="0.48322123"
     inkscape:cx="-125.20145"
     inkscape:cy="254.5418"
     inkscape:window-width="1920"
     inkscape:window-height="1009"
     inkscape:window-x="-8"
     inkscape:window-y="-8"
     inkscape:window-maximized="1"
     inkscape:current-layer="g11" />
  <defs
     id="defs1" />
  <g
     id="layer2"
     transform="translate(-76.644653,-20.085175)">
    <g
       id="g11">
      <g
         id="g10">
        <circle
           style="display:inline;opacity:1;fill:#1a2e2c;stroke:#b28e56;stroke-width:14;stroke-dasharray:none;stroke-opacity:1;paint-order:markers stroke fill"
           id="path1"
           cx="286.0892"
           cy="229.52972"
           r="202.44455" />
      </g>
      <g
         id="layer1"
         style="display:inline;fill:#b28e56"
         transform="matrix(1.6565435,0,0,1.7372875,105.54736,43.418139)">
        <path
           id="text1"
           style="font-weight:bold;font-size:133.333px;font-family:'Perpetua Titling MT';-inkscape-font-specification:'Perpetua Titling MT Bold';white-space:pre;fill:#b28e56;fill-opacity:1;fill-rule:nonzero;stroke-width:1.2912"
           d="m 120.8418,14.837891 c -1.49884,4.375166 -3.66912,6.5625 -6.51172,6.5625 -1.55052,0 -3.97934,-0.455695 -7.28711,-1.367188 -9.406457,-3.099076 -18.089521,-4.648437 -26.048829,-4.648437 -8.062676,0 -15.583232,1.275945 -22.560547,3.828125 -6.977316,2.491414 -13.695773,7.201559 -20.15625,14.128906 -3.772919,4.253634 -7.028336,8.870688 -9.767578,13.853515 -2.739243,4.922062 -4.909521,10.574628 -6.511719,16.955079 -1.602199,6.38045 -2.404297,13.275976 -2.404297,20.689453 0,8.628798 2.083739,16.735796 4.516198,24.893036 2.480823,8.31944 7.427929,15.23963 13.042698,20.89787 6.095715,6.14291 12.01648,9.5072 19.885912,12.39082 8.186281,2.29253 15.300021,2.72493 22.317062,2.18034 0.145837,-0.0113 1.152691,-8.1278 1.152691,-8.1278 -4.312943,-0.0599 -5.110975,0.11231 -11.297373,-2.64833 -6.098691,-3.46367 -11.976353,-9.28561 -16.278875,-18.05514 -4.076275,-8.30839 -5.894954,-20.683234 -5.894954,-35.267124 0,-8.021139 0.620916,-15.55659 1.861329,-22.605469 1.240411,-7.109645 3.386201,-13.580507 6.435546,-19.414063 2.532507,-4.61823 6.150288,-8.477095 10.853516,-11.576172 4.754911,-3.099076 11.028984,-5.53232 17.231042,-5.53232 4.651544,0 8.954641,0.586114 13.089346,2.287568 4.186382,1.701454 8.022812,4.222313 11.330582,7.564453 3.35945,3.281375 6.02479,8.151794 8.35056,13.195389 2.37746,5.043594 2.83065,7.457619 4.18792,14.04799 h 3.24322 l -0.53033,-44.233001 z m -42.28954,47.668391 0.265166,4.08222 c 7.280936,1.329705 10.549836,5.160322 10.247789,10.875655 0.215246,2.683302 -8.755,71.490023 -9.162871,74.889363 l -0.117141,1.32421 c -1.033959,8.66968 -2.260625,14.86667 -4.476562,18.58985 -2.170714,3.72317 -3.283648,4.41753 -7.579852,4.73667 l -0.353553,3.55189 28.437891,0.35356 -0.265165,-3.90545 c -1.961063,-0.12437 -1.130556,-0.1163 -3.077212,-0.50814 -1.989818,-1.06376 -3.595379,-3.29713 -4.816406,-6.70117 -1.221026,-3.45722 -1.604576,-8.40406 -1.152344,-14.83984 l 1.298406,-10.12529 c 4.42097,-1.11059 6.714369,-1.86457 10.250845,-3.51808 4.353349,-2.03545 6.354429,-3.75881 9.584789,-6.09767 l -3.04588,-9.73008 c -2.57399,3.60015 -8.291089,9.50299 -15.87508,10.77497 l 5.200327,-48.66196 0.359873,0.176776 c 1.041152,0.919347 28.01397,91.525534 29.66911,93.047424 l 2.55177,0.17677 33.33407,-94.656283 h 0.27148 l 5.59188,74.040433 c 0.45224,6.75491 1.77917,11.4522 -3.3536,14.358 -1.19843,0.7845 -1.99553,1.62731 -4.95562,2.17564 l -0.0884,3.99383 41.08444,-0.17678 -0.17677,-3.4635 c -3.07312,-0.35589 -4.20589,-0.58788 -5.60781,-1.49208 -1.35669,-0.9042 -2.51124,-2.65939 -3.46093,-5.26562 -0.90446,-2.65941 -1.55979,-6.75554 -1.9668,-12.28711 l -5.49414,-78.904298 c -0.31656,-3.935924 0.0901,-6.887505 1.2207,-8.855468 1.13058,-2.021152 2.08989,-2.237536 3.85153,-3.21136 1.89526,-0.585071 1.50424,-0.717396 3.9504,-1.283701 V 62.771447 H 162.55546 L 135.23021,139.46132 111.45816,62.241117 Z" />
      </g>
    </g>
  </g>
</svg>
